# MagicaVoxel @ Ephtracy

# material
mtllib Rock_2.mtl
usemtl palette

# normals
vn -1 0 0
vn 1 0 0
vn 0 0 1
vn 0 0 -1
vn 0 -1 0
vn 0 1 0

# texcoords
vt 0.939453 0.5
vt 0.943359 0.5
vt 0.970703 0.5

# verts
v -2 0 3
v -2 0 -1
v -2 0 -2
v -2 0 -5
v -2 1 3
v -2 1 -1
v -2 2 -2
v -2 2 -5
v -1 0 6
v -1 0 4
v -1 0 -5
v -1 0 -6
v -1 1 6
v -1 1 4
v -1 1 2
v -1 1 -0
v -1 1 -1
v -1 1 -2
v -1 2 2
v -1 2 -0
v -1 2 -1
v -1 2 -2
v -1 2 -5
v -1 2 -6
v -1 3 -1
v -1 3 -5
v 0 2 1
v 0 2 -0
v 0 3 1
v 0 3 -0
v 0 3 -2
v 0 3 -4
v 0 4 -2
v 0 4 -4
v 1 0 -1
v 1 0 -2
v 1 1 -1
v 1 1 -2
v 1 0 6
v 1 0 4
v 1 0 -5
v 1 0 -6
v 1 1 6
v 1 1 4
v 1 1 2
v 1 1 -0
v 1 1 -1
v 1 2 2
v 1 2 1
v 1 2 -0
v 1 2 -1
v 1 2 -4
v 1 2 -5
v 1 2 -6
v 1 3 1
v 1 3 -0
v 1 3 -1
v 1 3 -2
v 1 3 -4
v 1 3 -5
v 1 4 -2
v 1 4 -4
v 2 0 3
v 2 0 -1
v 2 0 -2
v 2 0 -5
v 2 1 3
v 2 1 -1
v 2 1 -2
v 2 1 -4
v 2 2 -1
v 2 2 -4
v 2 2 -5
v -1 0 6
v -1 1 6
v 1 0 6
v 1 1 6
v -2 0 3
v -2 1 3
v 2 0 3
v 2 1 3
v -1 1 2
v -1 2 2
v 1 1 2
v 1 2 2
v 0 2 1
v 0 3 1
v 1 2 1
v 1 3 1
v -1 2 -1
v -1 3 -1
v 1 1 -1
v 1 2 -1
v 1 3 -1
v 2 1 -1
v 2 2 -1
v -2 0 -2
v -2 2 -2
v -1 1 -2
v -1 2 -2
v 0 3 -2
v 0 4 -2
v 1 0 -2
v 1 1 -2
v 1 3 -2
v 1 4 -2
v -1 0 4
v -1 1 4
v 1 0 4
v 1 1 4
v 0 2 -0
v 0 3 -0
v 1 2 -0
v 1 3 -0
v -2 0 -1
v -2 1 -1
v -1 1 -1
v 1 0 -1
v 1 1 -1
v 0 3 -4
v 0 4 -4
v 1 3 -4
v 1 4 -4
v -2 0 -5
v -2 2 -5
v -1 0 -5
v -1 2 -5
v -1 3 -5
v 1 0 -5
v 1 2 -5
v 1 3 -5
v 2 0 -5
v 2 2 -5
v -1 0 -6
v -1 2 -6
v 1 0 -6
v 1 2 -6
v -1 0 6
v 1 0 6
v -1 0 4
v 1 0 4
v -2 0 3
v 2 0 3
v -2 0 -1
v 1 0 -1
v 2 0 -1
v -2 0 -2
v 1 0 -2
v 2 0 -2
v -2 0 -5
v -1 0 -5
v 1 0 -5
v 2 0 -5
v -1 0 -6
v 1 0 -6
v -1 1 -1
v 1 1 -1
v -1 1 -2
v 1 1 -2
v -1 1 6
v 1 1 6
v -1 1 4
v 1 1 4
v -2 1 3
v 2 1 3
v -1 1 2
v 1 1 2
v -1 1 -0
v 1 1 -0
v -2 1 -1
v -1 1 -1
v 1 1 -1
v 2 1 -1
v -1 2 2
v 1 2 2
v 0 2 1
v 1 2 1
v -1 2 -0
v 0 2 -0
v 1 2 -0
v -1 2 -1
v 1 2 -1
v 2 2 -1
v -2 2 -2
v -1 2 -2
v 1 2 -4
v 2 2 -4
v -2 2 -5
v -1 2 -5
v 1 2 -5
v 2 2 -5
v -1 2 -6
v 1 2 -6
v 0 3 1
v 1 3 1
v 0 3 -0
v 1 3 -0
v -1 3 -1
v 1 3 -1
v 0 3 -2
v 1 3 -2
v 0 3 -4
v 1 3 -4
v -1 3 -5
v 1 3 -5
v 0 4 -2
v 1 4 -2
v 0 4 -4
v 1 4 -4

# faces
f 5/1/1 2/1/1 1/1/1
f 6/1/1 2/1/1 5/1/1
f 7/1/1 4/1/1 3/1/1
f 8/1/1 4/1/1 7/1/1
f 13/1/1 10/1/1 9/1/1
f 14/1/1 10/1/1 13/1/1
f 19/3/1 16/3/1 15/3/1
f 20/2/1 18/2/1 17/2/1
f 20/3/1 16/3/1 19/3/1
f 20/2/1 17/2/1 16/2/1
f 21/2/1 18/2/1 20/2/1
f 22/2/1 18/2/1 21/2/1
f 23/1/1 12/1/1 11/1/1
f 24/1/1 12/1/1 23/1/1
f 25/3/1 22/3/1 21/3/1
f 25/3/1 23/3/1 22/3/1
f 26/3/1 23/3/1 25/3/1
f 29/3/1 28/3/1 27/3/1
f 30/3/1 28/3/1 29/3/1
f 33/2/1 32/2/1 31/2/1
f 34/2/1 32/2/1 33/2/1
f 37/3/1 36/3/1 35/3/1
f 38/3/1 36/3/1 37/3/1
f 39/1/2 40/1/2 43/1/2
f 43/1/2 40/1/2 44/1/2
f 45/3/2 46/3/2 48/3/2
f 48/3/2 46/3/2 49/3/2
f 46/2/2 47/2/2 50/2/2
f 49/3/2 46/3/2 50/3/2
f 50/2/2 47/2/2 51/2/2
f 41/1/2 42/1/2 53/1/2
f 53/1/2 42/1/2 54/1/2
f 49/3/2 50/3/2 55/3/2
f 55/3/2 50/3/2 56/3/2
f 51/3/2 52/3/2 57/3/2
f 52/3/2 53/3/2 57/3/2
f 57/3/2 53/3/2 58/3/2
f 58/3/2 53/3/2 59/3/2
f 59/3/2 53/3/2 60/3/2
f 58/2/2 59/2/2 61/2/2
f 61/2/2 59/2/2 62/2/2
f 63/1/2 64/1/2 67/1/2
f 64/3/2 65/3/2 68/3/2
f 67/1/2 64/1/2 68/1/2
f 65/1/2 66/1/2 69/1/2
f 68/3/2 65/3/2 69/3/2
f 69/1/2 66/1/2 70/1/2
f 68/3/2 69/3/2 71/3/2
f 69/3/2 70/3/2 71/3/2
f 70/1/2 66/1/2 72/1/2
f 71/3/2 70/3/2 72/3/2
f 72/1/2 66/1/2 73/1/2
f 76/1/3 75/1/3 74/1/3
f 77/1/3 75/1/3 76/1/3
f 80/1/3 79/1/3 78/1/3
f 81/1/3 79/1/3 80/1/3
f 84/3/3 83/3/3 82/3/3
f 85/3/3 83/3/3 84/3/3
f 88/3/3 87/3/3 86/3/3
f 89/3/3 87/3/3 88/3/3
f 93/3/3 91/3/3 90/3/3
f 94/3/3 91/3/3 93/3/3
f 95/3/3 93/3/3 92/3/3
f 96/3/3 93/3/3 95/3/3
f 99/1/3 98/1/3 97/1/3
f 100/1/3 98/1/3 99/1/3
f 103/1/3 99/1/3 97/1/3
f 104/1/3 99/1/3 103/1/3
f 105/2/3 102/2/3 101/2/3
f 106/2/3 102/2/3 105/2/3
f 107/1/4 108/1/4 109/1/4
f 109/1/4 108/1/4 110/1/4
f 111/3/4 112/3/4 113/3/4
f 113/3/4 112/3/4 114/3/4
f 115/1/4 116/1/4 117/1/4
f 115/1/4 117/1/4 118/1/4
f 118/1/4 117/1/4 119/1/4
f 120/2/4 121/2/4 122/2/4
f 122/2/4 121/2/4 123/2/4
f 124/1/4 125/1/4 126/1/4
f 126/1/4 125/1/4 127/1/4
f 127/3/4 128/3/4 130/3/4
f 130/3/4 128/3/4 131/3/4
f 129/1/4 130/1/4 132/1/4
f 132/1/4 130/1/4 133/1/4
f 134/1/4 135/1/4 136/1/4
f 136/1/4 135/1/4 137/1/4
f 140/1/5 139/1/5 138/1/5
f 141/1/5 139/1/5 140/1/5
f 144/1/5 143/1/5 142/1/5
f 145/1/5 143/1/5 144/1/5
f 146/1/5 143/1/5 145/1/5
f 148/3/5 146/3/5 145/3/5
f 149/3/5 146/3/5 148/3/5
f 150/1/5 148/1/5 147/1/5
f 150/1/5 149/1/5 148/1/5
f 151/1/5 149/1/5 150/1/5
f 152/1/5 149/1/5 151/1/5
f 153/1/5 149/1/5 152/1/5
f 154/1/5 152/1/5 151/1/5
f 155/1/5 152/1/5 154/1/5
f 158/2/5 157/2/5 156/2/5
f 159/2/5 157/2/5 158/2/5
f 160/1/6 161/1/6 162/1/6
f 162/1/6 161/1/6 163/1/6
f 164/1/6 165/1/6 166/1/6
f 166/1/6 165/1/6 167/1/6
f 164/1/6 166/1/6 168/1/6
f 167/1/6 165/1/6 169/1/6
f 164/1/6 168/1/6 170/1/6
f 170/1/6 168/1/6 171/1/6
f 169/1/6 165/1/6 172/1/6
f 172/1/6 165/1/6 173/1/6
f 174/3/6 175/3/6 176/3/6
f 176/3/6 175/3/6 177/3/6
f 174/3/6 176/3/6 178/3/6
f 178/3/6 176/3/6 179/3/6
f 178/2/6 179/2/6 181/2/6
f 179/2/6 180/2/6 181/2/6
f 181/2/6 180/2/6 182/2/6
f 182/3/6 183/3/6 186/3/6
f 186/3/6 183/3/6 187/3/6
f 184/1/6 185/1/6 188/1/6
f 188/1/6 185/1/6 189/1/6
f 186/1/6 187/1/6 190/1/6
f 190/1/6 187/1/6 191/1/6
f 189/1/6 190/1/6 192/1/6
f 192/1/6 190/1/6 193/1/6
f 194/3/6 195/3/6 196/3/6
f 196/3/6 195/3/6 197/3/6
f 198/3/6 199/3/6 200/3/6
f 200/3/6 199/3/6 201/3/6
f 198/3/6 200/3/6 202/3/6
f 198/3/6 202/3/6 204/3/6
f 202/3/6 203/3/6 204/3/6
f 204/3/6 203/3/6 205/3/6
f 206/2/6 207/2/6 208/2/6
f 208/2/6 207/2/6 209/2/6
