# MagicaVoxel @ Ephtracy

# material
mtllib Rock_5.mtl
usemtl palette

# normals
vn -1 0 0
vn 1 0 0
vn 0 0 1
vn 0 0 -1
vn 0 -1 0
vn 0 1 0

# texcoords
vt 0.939453 0.5
vt 0.947266 0.5
vt 0.970703 0.5

# verts
v -10 0 2
v -10 0 -2
v -10 8 2
v -10 8 -2
v -9 0 4
v -9 0 2
v -9 0 -2
v -9 0 -4
v -9 8 2
v -9 8 -2
v -9 10 4
v -9 10 -4
v -8 0 6
v -8 0 4
v -8 0 -4
v -8 0 -6
v -8 4 -4
v -8 4 -6
v -8 5 6
v -8 5 4
v -8 8 6
v -8 8 4
v -8 8 -4
v -8 8 -6
v -7 8 6
v -7 8 4
v -7 8 -4
v -7 8 -6
v -7 10 4
v -7 10 -4
v -7 11 6
v -7 11 3
v -7 12 3
v -7 12 -2
v -7 13 6
v -7 13 4
v -7 13 -2
v -7 13 -6
v -7 15 4
v -7 15 -6
v -6 0 7
v -6 0 6
v -6 3 7
v -6 3 6
v -6 13 6
v -6 13 4
v -6 15 6
v -6 15 4
v -6 15 1
v -6 15 -6
v -6 16 1
v -6 16 -6
v -5 15 5
v -5 15 1
v -5 16 1
v -5 16 -3
v -5 17 5
v -5 17 4
v -5 18 -0
v -5 18 -3
v -5 19 4
v -5 19 -0
v -4 0 8
v -4 0 7
v -4 3 7
v -4 3 6
v -4 9 8
v -4 9 7
v -4 11 7
v -4 11 6
v -4 13 7
v -4 13 6
v -4 18 -0
v -4 18 -1
v -4 19 -0
v -4 19 -1
v -3 18 -1
v -3 18 -2
v -3 19 -1
v -3 19 -2
v -2 0 -6
v -2 0 -8
v -2 12 -6
v -2 12 -8
v 0 16 -3
v 0 16 -4
v 0 18 -3
v 0 18 -4
v 1 9 8
v 1 9 7
v 1 10 8
v 1 10 7
v 2 13 7
v 2 13 6
v 2 14 7
v 2 14 6
v 2 15 6
v 2 15 5
v 2 16 7
v 2 16 5
v -1 18 4
v -1 18 1
v -1 19 4
v -1 19 1
v 0 18 1
v 0 18 -2
v 0 19 1
v 0 19 -2
v 2 16 5
v 2 16 4
v 2 17 5
v 2 17 4
v 2 17 -2
v 2 18 4
v 2 18 -2
v 3 17 -2
v 3 17 -4
v 3 18 -2
v 3 18 -4
v 4 16 -2
v 4 16 -4
v 4 17 -2
v 4 17 -4
v 5 7 8
v 5 7 7
v 5 10 8
v 5 10 7
v 5 14 -4
v 5 14 -6
v 5 16 -0
v 5 16 -2
v 5 16 -4
v 5 16 -6
v 5 17 -0
v 5 17 -2
v 6 0 8
v 6 0 7
v 6 0 -6
v 6 0 -8
v 6 3 7
v 6 3 6
v 6 7 8
v 6 7 7
v 6 10 6
v 6 12 7
v 6 12 6
v 6 12 -6
v 6 12 -8
v 6 14 -2
v 6 14 -4
v 6 16 7
v 6 16 6
v 6 16 4
v 6 16 -0
v 6 16 -2
v 6 16 -4
v 6 17 4
v 6 17 -0
v 7 12 -3
v 7 12 -6
v 7 14 6
v 7 14 -2
v 7 14 -3
v 7 14 -6
v 7 16 6
v 7 16 -2
v 8 0 -4
v 8 0 -6
v 8 3 6
v 8 3 4
v 8 8 4
v 8 8 -4
v 8 10 6
v 8 10 -0
v 8 12 -0
v 8 12 -3
v 8 12 -6
v 8 14 6
v 8 14 -3
v 9 0 7
v 9 0 4
v 9 0 2
v 9 0 -2
v 9 0 -4
v 9 3 7
v 9 3 4
v 9 6 2
v 9 6 -2
v 9 8 4
v 9 8 -4
v 10 0 2
v 10 0 -2
v 10 6 2
v 10 6 -2
v -4 0 8
v -4 9 8
v 1 9 8
v 1 10 8
v 5 7 8
v 5 10 8
v 6 0 8
v 6 7 8
v -6 0 7
v -6 3 7
v -4 0 7
v -4 3 7
v -4 9 7
v -4 11 7
v -4 13 7
v 1 9 7
v 1 10 7
v 2 11 7
v 2 13 7
v 2 14 7
v 2 16 7
v 4 12 7
v 4 14 7
v 5 7 7
v 5 10 7
v 6 0 7
v 6 3 7
v 6 7 7
v 6 12 7
v 6 16 7
v 9 0 7
v 9 3 7
v -8 0 6
v -8 5 6
v -8 8 6
v -7 8 6
v -7 11 6
v -7 13 6
v -6 0 6
v -6 3 6
v -6 13 6
v -6 15 6
v -5 5 6
v -5 11 6
v -4 3 6
v -4 11 6
v -4 13 6
v 2 13 6
v 2 14 6
v 2 15 6
v 6 3 6
v 6 10 6
v 6 12 6
v 6 16 6
v 7 14 6
v 7 16 6
v 8 3 6
v 8 10 6
v 8 14 6
v -5 15 5
v -5 17 5
v 2 15 5
v 2 16 5
v 2 17 5
v -9 0 4
v -9 10 4
v -8 0 4
v -8 5 4
v -8 8 4
v -7 8 4
v -7 10 4
v -7 13 4
v -7 15 4
v -6 13 4
v -6 15 4
v -5 17 4
v -5 19 4
v -1 18 4
v -1 19 4
v 2 16 4
v 2 17 4
v 2 18 4
v 6 16 4
v 6 17 4
v 8 3 4
v 8 8 4
v 9 3 4
v 9 8 4
v -10 0 2
v -10 8 2
v -9 0 2
v -9 8 2
v 9 0 2
v 9 6 2
v 10 0 2
v 10 6 2
v -6 15 1
v -6 16 1
v -5 15 1
v -5 16 1
v -1 18 1
v -1 19 1
v 0 18 1
v 0 19 1
v 2 17 -2
v 2 18 -2
v 3 17 -2
v 3 18 -2
v -5 18 -0
v -5 19 -0
v -4 18 -0
v -4 19 -0
v 5 16 -0
v 5 17 -0
v 6 16 -0
v 6 17 -0
v -4 18 -1
v -4 19 -1
v -3 18 -1
v -3 19 -1
v -10 0 -2
v -10 8 -2
v -9 0 -2
v -9 8 -2
v -3 18 -2
v -3 19 -2
v 0 18 -2
v 0 19 -2
v 4 16 -2
v 4 17 -2
v 5 16 -2
v 5 17 -2
v 6 14 -2
v 6 16 -2
v 7 14 -2
v 7 16 -2
v 9 0 -2
v 9 6 -2
v 10 0 -2
v 10 6 -2
v -5 16 -3
v -5 18 -3
v 0 16 -3
v 0 18 -3
v 7 12 -3
v 7 14 -3
v 8 12 -3
v 8 14 -3
v -9 0 -4
v -9 10 -4
v -8 0 -4
v -8 4 -4
v -8 8 -4
v -7 8 -4
v -7 10 -4
v 0 16 -4
v 0 18 -4
v 3 17 -4
v 3 18 -4
v 4 16 -4
v 4 17 -4
v 5 14 -4
v 5 16 -4
v 6 14 -4
v 6 16 -4
v 8 0 -4
v 8 8 -4
v 9 0 -4
v 9 8 -4
v -8 0 -6
v -8 4 -6
v -8 8 -6
v -7 8 -6
v -7 13 -6
v -7 15 -6
v -6 3 -6
v -6 4 -6
v -6 15 -6
v -6 16 -6
v -5 1 -6
v -5 3 -6
v -4 0 -6
v -4 1 -6
v -2 0 -6
v -2 12 -6
v 0 13 -6
v 0 14 -6
v 4 14 -6
v 4 16 -6
v 5 14 -6
v 5 16 -6
v 6 0 -6
v 6 12 -6
v 7 12 -6
v 7 14 -6
v 8 0 -6
v 8 12 -6
v -2 0 -8
v -2 12 -8
v 6 0 -8
v 6 12 -8
v -4 0 8
v 6 0 8
v -6 0 7
v -4 0 7
v 6 0 7
v 9 0 7
v -8 0 6
v -6 0 6
v -9 0 4
v -8 0 4
v 8 0 4
v 9 0 4
v -10 0 2
v -9 0 2
v 8 0 2
v 9 0 2
v 10 0 2
v -10 0 -2
v -9 0 -2
v 8 0 -2
v 9 0 -2
v 10 0 -2
v -9 0 -4
v -8 0 -4
v 8 0 -4
v 9 0 -4
v -4 0 -5
v -2 0 -5
v -8 0 -6
v -4 0 -6
v -2 0 -6
v 6 0 -6
v 8 0 -6
v -2 0 -8
v 6 0 -8
v -6 3 7
v -4 3 7
v 6 3 7
v 9 3 7
v -6 3 6
v -4 3 6
v 6 3 6
v 8 3 6
v 8 3 4
v 9 3 4
v 9 6 2
v 10 6 2
v 9 6 -2
v 10 6 -2
v 5 7 8
v 6 7 8
v 5 7 7
v 6 7 7
v -8 8 6
v -7 8 6
v -8 8 4
v -7 8 4
v 8 8 4
v 9 8 4
v -10 8 2
v -9 8 2
v -10 8 -2
v -9 8 -2
v -8 8 -4
v -7 8 -4
v 8 8 -4
v 9 8 -4
v -8 8 -6
v -7 8 -6
v -4 9 8
v 1 9 8
v -4 9 7
v 1 9 7
v 1 10 8
v 5 10 8
v 1 10 7
v 5 10 7
v -9 10 4
v -7 10 4
v -9 10 -4
v -7 10 -4
v 7 12 -3
v 8 12 -3
v -2 12 -6
v 6 12 -6
v 7 12 -6
v 8 12 -6
v -2 12 -8
v 6 12 -8
v -4 13 7
v 2 13 7
v -7 13 6
v -6 13 6
v -4 13 6
v 2 13 6
v -7 13 4
v -6 13 4
v 7 14 6
v 8 14 6
v 6 14 -2
v 7 14 -2
v 7 14 -3
v 8 14 -3
v 5 14 -4
v 6 14 -4
v 5 14 -6
v 7 14 -6
v -6 15 6
v 2 15 6
v -5 15 5
v 2 15 5
v -7 15 4
v -6 15 4
v -6 15 1
v -5 15 1
v -7 15 -6
v -6 15 -6
v 2 16 7
v 6 16 7
v 6 16 6
v 7 16 6
v 2 16 5
v 2 16 4
v 6 16 4
v -6 16 1
v -5 16 1
v 5 16 -0
v 6 16 -0
v 4 16 -2
v 5 16 -2
v 6 16 -2
v 7 16 -2
v -5 16 -3
v 0 16 -3
v 0 16 -4
v 4 16 -4
v 5 16 -4
v 6 16 -4
v -6 16 -6
v 4 16 -6
v 5 16 -6
v -5 17 5
v 2 17 5
v -5 17 4
v 2 17 4
v 6 17 4
v 5 17 -0
v 6 17 -0
v 2 17 -2
v 3 17 -2
v 4 17 -2
v 5 17 -2
v 3 17 -4
v 4 17 -4
v -1 18 4
v 2 18 4
v -1 18 1
v 0 18 1
v -5 18 -0
v -4 18 -0
v -4 18 -1
v -3 18 -1
v -3 18 -2
v 0 18 -2
v 2 18 -2
v 3 18 -2
v -5 18 -3
v 0 18 -3
v 0 18 -4
v 3 18 -4
v -5 19 4
v -1 19 4
v -1 19 1
v 0 19 1
v -5 19 -0
v -4 19 -0
v -4 19 -1
v -3 19 -1
v -3 19 -2
v 0 19 -2

# faces
f 3/1/1 2/1/1 1/1/1
f 4/1/1 2/1/1 3/1/1
f 9/1/1 6/1/1 5/1/1
f 10/1/1 8/1/1 7/1/1
f 11/1/1 9/1/1 5/1/1
f 11/1/1 10/1/1 9/1/1
f 12/1/1 8/1/1 10/1/1
f 12/1/1 10/1/1 11/1/1
f 17/1/1 16/1/1 15/1/1
f 18/1/1 16/1/1 17/1/1
f 19/1/1 14/1/1 13/1/1
f 20/1/1 14/1/1 19/1/1
f 21/3/1 20/3/1 19/3/1
f 22/3/1 20/3/1 21/3/1
f 23/3/1 18/3/1 17/3/1
f 24/3/1 18/3/1 23/3/1
f 29/3/1 26/3/1 25/3/1
f 30/3/1 28/3/1 27/3/1
f 31/3/1 29/3/1 25/3/1
f 31/3/1 30/3/1 29/3/1
f 32/3/1 30/3/1 31/3/1
f 33/2/1 32/2/1 31/2/1
f 33/3/1 30/3/1 32/3/1
f 34/3/1 30/3/1 33/3/1
f 35/2/1 33/2/1 31/2/1
f 35/2/1 34/2/1 33/2/1
f 36/2/1 34/2/1 35/2/1
f 37/3/1 30/3/1 34/3/1
f 37/2/1 34/2/1 36/2/1
f 38/3/1 28/3/1 30/3/1
f 38/3/1 30/3/1 37/3/1
f 39/2/1 37/2/1 36/2/1
f 39/2/1 38/2/1 37/2/1
f 40/2/1 38/2/1 39/2/1
f 43/1/1 42/1/1 41/1/1
f 44/1/1 42/1/1 43/1/1
f 47/2/1 46/2/1 45/2/1
f 48/2/1 46/2/1 47/2/1
f 51/2/1 50/2/1 49/2/1
f 52/2/1 50/2/1 51/2/1
f 55/2/1 54/2/1 53/2/1
f 57/2/1 55/2/1 53/2/1
f 57/2/1 56/2/1 55/2/1
f 58/2/1 56/2/1 57/2/1
f 59/2/1 56/2/1 58/2/1
f 60/2/1 56/2/1 59/2/1
f 61/2/1 59/2/1 58/2/1
f 62/2/1 59/2/1 61/2/1
f 65/1/1 64/1/1 63/1/1
f 67/1/1 65/1/1 63/1/1
f 67/1/1 66/1/1 65/1/1
f 68/1/1 66/1/1 67/1/1
f 69/1/1 66/1/1 68/1/1
f 70/1/1 66/1/1 69/1/1
f 71/2/1 70/2/1 69/2/1
f 72/2/1 70/2/1 71/2/1
f 75/2/1 74/2/1 73/2/1
f 76/2/1 74/2/1 75/2/1
f 79/2/1 78/2/1 77/2/1
f 80/2/1 78/2/1 79/2/1
f 83/3/1 82/3/1 81/3/1
f 84/3/1 82/3/1 83/3/1
f 87/2/1 86/2/1 85/2/1
f 88/2/1 86/2/1 87/2/1
f 91/1/1 90/1/1 89/1/1
f 92/1/1 90/1/1 91/1/1
f 95/1/1 94/1/1 93/1/1
f 96/1/1 94/1/1 95/1/1
f 97/3/1 96/3/1 95/3/1
f 99/3/1 97/3/1 95/3/1
f 99/3/1 98/3/1 97/3/1
f 100/3/1 98/3/1 99/3/1
f 101/2/2 102/2/2 103/2/2
f 103/2/2 102/2/2 104/2/2
f 105/2/2 106/2/2 107/2/2
f 107/2/2 106/2/2 108/2/2
f 109/2/2 110/2/2 111/2/2
f 111/2/2 110/2/2 112/2/2
f 112/2/2 113/2/2 114/2/2
f 114/2/2 113/2/2 115/2/2
f 116/2/2 117/2/2 118/2/2
f 118/2/2 117/2/2 119/2/2
f 120/2/2 121/2/2 122/2/2
f 122/2/2 121/2/2 123/2/2
f 124/1/2 125/1/2 126/1/2
f 126/1/2 125/1/2 127/1/2
f 128/3/2 129/3/2 132/3/2
f 132/3/2 129/3/2 133/3/2
f 130/2/2 131/2/2 134/2/2
f 134/2/2 131/2/2 135/2/2
f 136/1/2 137/1/2 140/1/2
f 136/1/2 140/1/2 142/1/2
f 140/1/2 141/1/2 142/1/2
f 142/1/2 141/1/2 143/1/2
f 143/1/2 141/1/2 144/1/2
f 143/1/2 144/1/2 145/1/2
f 145/1/2 144/1/2 146/1/2
f 138/3/2 139/3/2 147/3/2
f 147/3/2 139/3/2 148/3/2
f 145/3/2 146/3/2 151/3/2
f 151/3/2 146/3/2 152/3/2
f 149/3/2 150/3/2 155/3/2
f 155/3/2 150/3/2 156/3/2
f 153/2/2 154/2/2 157/2/2
f 157/2/2 154/2/2 158/2/2
f 159/3/2 160/3/2 163/3/2
f 163/3/2 160/3/2 164/3/2
f 161/3/2 162/3/2 165/3/2
f 165/3/2 162/3/2 166/3/2
f 169/1/2 170/1/2 171/1/2
f 167/1/2 168/1/2 172/1/2
f 169/1/2 171/1/2 173/1/2
f 171/1/2 172/1/2 173/1/2
f 173/1/2 172/1/2 174/1/2
f 173/3/2 174/3/2 175/3/2
f 174/1/2 172/1/2 175/1/2
f 175/1/2 172/1/2 176/1/2
f 172/1/2 168/1/2 177/1/2
f 176/1/2 172/1/2 177/1/2
f 175/3/2 176/3/2 178/3/2
f 173/3/2 175/3/2 178/3/2
f 178/3/2 176/3/2 179/3/2
f 180/1/2 181/1/2 185/1/2
f 181/2/2 182/2/2 186/2/2
f 185/1/2 181/1/2 186/1/2
f 186/2/2 182/2/2 187/2/2
f 183/2/2 184/2/2 188/2/2
f 186/2/2 187/2/2 189/2/2
f 187/2/2 188/2/2 189/2/2
f 188/2/2 184/2/2 190/2/2
f 189/2/2 188/2/2 190/2/2
f 191/2/2 192/2/2 193/2/2
f 193/2/2 192/2/2 194/2/2
f 197/1/3 196/1/3 195/1/3
f 199/1/3 197/1/3 195/1/3
f 199/1/3 198/1/3 197/1/3
f 200/1/3 198/1/3 199/1/3
f 201/1/3 199/1/3 195/1/3
f 202/1/3 199/1/3 201/1/3
f 205/1/3 204/1/3 203/1/3
f 206/1/3 204/1/3 205/1/3
f 210/1/3 208/1/3 207/1/3
f 211/1/3 208/1/3 210/1/3
f 212/2/3 209/2/3 208/2/3
f 212/1/3 208/1/3 211/1/3
f 213/2/3 209/2/3 212/2/3
f 216/1/3 213/1/3 212/1/3
f 216/1/3 214/1/3 213/1/3
f 217/3/3 215/3/3 214/3/3
f 217/1/3 214/1/3 216/1/3
f 219/1/3 212/1/3 211/1/3
f 219/1/3 216/1/3 212/1/3
f 222/1/3 219/1/3 218/1/3
f 223/3/3 217/3/3 216/3/3
f 223/1/3 219/1/3 222/1/3
f 223/1/3 216/1/3 219/1/3
f 224/3/3 215/3/3 217/3/3
f 224/3/3 217/3/3 223/3/3
f 225/1/3 221/1/3 220/1/3
f 226/1/3 221/1/3 225/1/3
f 230/3/3 229/3/3 228/3/3
f 233/1/3 228/1/3 227/1/3
f 234/1/3 228/1/3 233/1/3
f 235/2/3 232/2/3 231/2/3
f 237/1/3 228/1/3 234/1/3
f 237/3/3 230/3/3 228/3/3
f 237/3/3 231/3/3 230/3/3
f 238/2/3 236/2/3 235/2/3
f 238/3/3 231/3/3 237/3/3
f 238/2/3 235/2/3 231/2/3
f 239/1/3 237/1/3 234/1/3
f 239/1/3 238/1/3 237/1/3
f 240/2/3 236/2/3 238/2/3
f 240/1/3 238/1/3 239/1/3
f 241/2/3 236/2/3 240/2/3
f 242/2/3 236/2/3 241/2/3
f 243/2/3 236/2/3 242/2/3
f 244/2/3 236/2/3 243/2/3
f 249/3/3 247/3/3 246/3/3
f 249/3/3 248/3/3 247/3/3
f 250/3/3 248/3/3 249/3/3
f 251/1/3 246/1/3 245/1/3
f 252/3/3 249/3/3 246/3/3
f 252/1/3 246/1/3 251/1/3
f 253/3/3 249/3/3 252/3/3
f 256/2/3 255/2/3 254/2/3
f 257/2/3 255/2/3 256/2/3
f 258/2/3 255/2/3 257/2/3
f 261/1/3 260/1/3 259/1/3
f 262/1/3 260/1/3 261/1/3
f 263/1/3 260/1/3 262/1/3
f 264/1/3 260/1/3 263/1/3
f 265/1/3 260/1/3 264/1/3
f 268/2/3 267/2/3 266/2/3
f 269/2/3 267/2/3 268/2/3
f 272/2/3 271/2/3 270/2/3
f 273/2/3 271/2/3 272/2/3
f 275/2/3 272/2/3 270/2/3
f 276/2/3 272/2/3 275/2/3
f 277/2/3 275/2/3 274/2/3
f 278/2/3 275/2/3 277/2/3
f 281/2/3 280/2/3 279/2/3
f 282/2/3 280/2/3 281/2/3
f 285/1/3 284/1/3 283/1/3
f 286/1/3 284/1/3 285/1/3
f 289/2/3 288/2/3 287/2/3
f 290/2/3 288/2/3 289/2/3
f 293/2/3 292/2/3 291/2/3
f 294/2/3 292/2/3 293/2/3
f 297/2/3 296/2/3 295/2/3
f 298/2/3 296/2/3 297/2/3
f 301/2/3 300/2/3 299/2/3
f 302/2/3 300/2/3 301/2/3
f 303/2/4 304/2/4 305/2/4
f 305/2/4 304/2/4 306/2/4
f 307/2/4 308/2/4 309/2/4
f 309/2/4 308/2/4 310/2/4
f 311/2/4 312/2/4 313/2/4
f 313/2/4 312/2/4 314/2/4
f 315/1/4 316/1/4 317/1/4
f 317/1/4 316/1/4 318/1/4
f 319/2/4 320/2/4 321/2/4
f 321/2/4 320/2/4 322/2/4
f 323/2/4 324/2/4 325/2/4
f 325/2/4 324/2/4 326/2/4
f 327/3/4 328/3/4 329/3/4
f 329/3/4 328/3/4 330/3/4
f 331/2/4 332/2/4 333/2/4
f 333/2/4 332/2/4 334/2/4
f 335/2/4 336/2/4 337/2/4
f 337/2/4 336/2/4 338/2/4
f 339/3/4 340/3/4 341/3/4
f 341/3/4 340/3/4 342/3/4
f 343/1/4 344/1/4 345/1/4
f 345/1/4 344/1/4 346/1/4
f 346/1/4 344/1/4 347/1/4
f 347/1/4 344/1/4 348/1/4
f 348/1/4 344/1/4 349/1/4
f 350/2/4 351/2/4 352/2/4
f 352/2/4 351/2/4 353/2/4
f 350/2/4 352/2/4 354/2/4
f 354/2/4 352/2/4 355/2/4
f 356/3/4 357/3/4 358/3/4
f 358/3/4 357/3/4 359/3/4
f 360/2/4 361/2/4 362/2/4
f 362/2/4 361/2/4 363/2/4
f 365/3/4 366/3/4 367/3/4
f 364/1/4 365/1/4 370/1/4
f 365/3/4 367/3/4 371/3/4
f 370/1/4 365/1/4 371/1/4
f 367/3/4 368/3/4 371/3/4
f 368/2/4 369/2/4 372/2/4
f 364/1/4 370/1/4 374/1/4
f 370/3/4 371/3/4 375/3/4
f 374/1/4 370/1/4 375/1/4
f 364/1/4 374/1/4 376/1/4
f 374/3/4 375/3/4 377/3/4
f 376/1/4 374/1/4 377/1/4
f 376/3/4 377/3/4 378/3/4
f 371/3/4 368/3/4 379/3/4
f 378/3/4 377/3/4 379/3/4
f 375/3/4 371/3/4 379/3/4
f 377/3/4 375/3/4 379/3/4
f 372/2/4 373/2/4 380/2/4
f 379/3/4 368/3/4 380/3/4
f 368/2/4 372/2/4 380/2/4
f 380/2/4 373/2/4 381/2/4
f 380/3/4 381/3/4 382/3/4
f 381/2/4 373/2/4 382/2/4
f 382/2/4 373/2/4 383/2/4
f 380/3/4 382/3/4 384/3/4
f 382/3/4 383/3/4 384/3/4
f 384/3/4 383/3/4 385/3/4
f 379/3/4 380/3/4 387/3/4
f 380/3/4 384/3/4 387/3/4
f 387/3/4 384/3/4 388/3/4
f 386/1/4 387/1/4 388/1/4
f 388/3/4 384/3/4 389/3/4
f 386/1/4 388/1/4 390/1/4
f 390/1/4 388/1/4 391/1/4
f 392/3/4 393/3/4 394/3/4
f 394/3/4 393/3/4 395/3/4
f 399/1/5 397/1/5 396/1/5
f 400/1/5 397/1/5 399/1/5
f 403/1/5 399/1/5 398/1/5
f 403/1/5 401/1/5 400/1/5
f 403/1/5 400/1/5 399/1/5
f 405/1/5 403/1/5 402/1/5
f 406/1/5 401/1/5 403/1/5
f 406/1/5 403/1/5 405/1/5
f 407/1/5 401/1/5 406/1/5
f 409/1/5 405/1/5 404/1/5
f 409/1/5 406/1/5 405/1/5
f 410/2/5 407/2/5 406/2/5
f 410/1/5 406/1/5 409/1/5
f 411/2/5 407/2/5 410/2/5
f 413/1/5 411/1/5 410/1/5
f 413/1/5 409/1/5 408/1/5
f 413/1/5 410/1/5 409/1/5
f 414/1/5 411/1/5 413/1/5
f 415/1/5 411/1/5 414/1/5
f 416/2/5 412/2/5 411/2/5
f 416/1/5 411/1/5 415/1/5
f 417/2/5 412/2/5 416/2/5
f 418/1/5 415/1/5 414/1/5
f 419/1/5 415/1/5 418/1/5
f 420/2/5 416/2/5 415/2/5
f 420/1/5 415/1/5 419/1/5
f 421/2/5 416/2/5 420/2/5
f 422/1/5 420/1/5 419/1/5
f 423/1/5 420/1/5 422/1/5
f 424/1/5 422/1/5 419/1/5
f 425/3/5 423/3/5 422/3/5
f 425/1/5 422/1/5 424/1/5
f 426/1/5 420/1/5 423/1/5
f 426/3/5 423/3/5 425/3/5
f 427/1/5 420/1/5 426/1/5
f 428/1/5 420/1/5 427/1/5
f 429/3/5 427/3/5 426/3/5
f 430/3/5 427/3/5 429/3/5
f 431/1/6 432/1/6 435/1/6
f 435/1/6 432/1/6 436/1/6
f 433/1/6 434/1/6 437/1/6
f 437/1/6 434/1/6 438/1/6
f 438/1/6 434/1/6 439/1/6
f 439/1/6 434/1/6 440/1/6
f 441/2/6 442/2/6 443/2/6
f 443/2/6 442/2/6 444/2/6
f 445/1/6 446/1/6 447/1/6
f 447/1/6 446/1/6 448/1/6
f 449/3/6 450/3/6 451/3/6
f 451/3/6 450/3/6 452/3/6
f 455/1/6 456/1/6 457/1/6
f 457/1/6 456/1/6 458/1/6
f 453/2/6 454/2/6 461/2/6
f 461/2/6 454/2/6 462/2/6
f 459/3/6 460/3/6 463/3/6
f 463/3/6 460/3/6 464/3/6
f 465/1/6 466/1/6 467/1/6
f 467/1/6 466/1/6 468/1/6
f 469/1/6 470/1/6 471/1/6
f 471/1/6 470/1/6 472/1/6
f 473/1/6 474/1/6 475/1/6
f 475/1/6 474/1/6 476/1/6
f 477/1/6 478/1/6 481/1/6
f 481/1/6 478/1/6 482/1/6
f 479/3/6 480/3/6 483/3/6
f 483/3/6 480/3/6 484/3/6
f 485/2/6 486/2/6 489/2/6
f 489/2/6 486/2/6 490/2/6
f 487/2/6 488/2/6 491/2/6
f 491/2/6 488/2/6 492/2/6
f 493/3/6 494/3/6 496/3/6
f 496/3/6 494/3/6 497/3/6
f 495/3/6 496/3/6 497/3/6
f 497/3/6 494/3/6 498/3/6
f 495/3/6 497/3/6 500/3/6
f 499/3/6 500/3/6 501/3/6
f 500/3/6 497/3/6 502/3/6
f 501/3/6 500/3/6 502/3/6
f 503/2/6 504/2/6 505/2/6
f 505/2/6 504/2/6 506/2/6
f 503/2/6 505/2/6 508/2/6
f 508/2/6 505/2/6 509/2/6
f 507/2/6 508/2/6 509/2/6
f 509/2/6 505/2/6 510/2/6
f 507/2/6 509/2/6 511/2/6
f 511/2/6 509/2/6 512/2/6
f 513/3/6 514/3/6 515/3/6
f 513/3/6 515/3/6 517/3/6
f 515/3/6 516/3/6 517/3/6
f 517/3/6 516/3/6 518/3/6
f 518/3/6 516/3/6 519/3/6
f 519/3/6 516/3/6 523/3/6
f 522/3/6 523/3/6 525/3/6
f 523/3/6 516/3/6 526/3/6
f 525/3/6 523/3/6 526/3/6
f 526/3/6 516/3/6 527/3/6
f 520/2/6 521/2/6 528/2/6
f 528/2/6 529/2/6 530/2/6
f 524/3/6 525/3/6 531/3/6
f 525/3/6 526/3/6 531/3/6
f 531/3/6 526/3/6 532/3/6
f 532/3/6 526/3/6 533/3/6
f 528/2/6 530/2/6 534/2/6
f 520/2/6 528/2/6 534/2/6
f 530/2/6 531/2/6 534/2/6
f 531/3/6 532/3/6 535/3/6
f 534/2/6 531/2/6 535/2/6
f 535/3/6 532/3/6 536/3/6
f 537/2/6 538/2/6 539/2/6
f 539/2/6 538/2/6 540/2/6
f 540/2/6 541/2/6 542/2/6
f 542/2/6 541/2/6 543/2/6
f 540/2/6 542/2/6 544/2/6
f 544/2/6 542/2/6 545/2/6
f 545/2/6 542/2/6 546/2/6
f 546/2/6 542/2/6 547/2/6
f 545/2/6 546/2/6 548/2/6
f 548/2/6 546/2/6 549/2/6
f 550/2/6 551/2/6 552/2/6
f 552/2/6 551/2/6 553/2/6
f 554/2/6 555/2/6 556/2/6
f 556/2/6 557/2/6 558/2/6
f 553/2/6 551/2/6 559/2/6
f 559/2/6 551/2/6 560/2/6
f 556/2/6 558/2/6 562/2/6
f 560/2/6 561/2/6 562/2/6
f 559/2/6 560/2/6 562/2/6
f 558/2/6 559/2/6 562/2/6
f 554/2/6 556/2/6 562/2/6
f 562/2/6 561/2/6 563/2/6
f 563/2/6 561/2/6 564/2/6
f 564/2/6 561/2/6 565/2/6
f 566/2/6 567/2/6 568/2/6
f 566/2/6 568/2/6 570/2/6
f 568/2/6 569/2/6 570/2/6
f 570/2/6 569/2/6 571/2/6
f 571/2/6 569/2/6 572/2/6
f 572/2/6 569/2/6 573/2/6
f 573/2/6 569/2/6 574/2/6
f 574/2/6 569/2/6 575/2/6
