# MagicaVoxel @ Ephtracy

# material
mtllib tower_4.mtl
usemtl palette

# normals
vn -1 0 0
vn 1 0 0
vn 0 0 1
vn 0 0 -1
vn 0 -1 0
vn 0 1 0

# texcoords
vt 0.126953 0.5
vt 0.158203 0.5
vt 0.162109 0.5

# verts
v -3.5 0 3.5
v -3.5 0 1.5
v -3.5 0 -1.5
v -3.5 0 -3.5
v -3.5 3 3.5
v -3.5 3 1.5
v -3.5 3 -1.5
v -3.5 3 -3.5
v -2.5 0 1.5
v -2.5 0 -1.5
v -2.5 3 2.5
v -2.5 3 1.5
v -2.5 3 0.5
v -2.5 3 -0.5
v -2.5 3 -1.5
v -2.5 3 -2.5
v -2.5 5 1.5
v -2.5 5 0.5
v -2.5 5 -0.5
v -2.5 5 -1.5
v -2.5 6 1.5
v -2.5 6 -1.5
v -2.5 7 0.5
v -2.5 7 -0.5
v -2.5 8 2.5
v -2.5 8 0.5
v -2.5 8 -0.5
v -2.5 8 -2.5
v 0.5 7 2.5
v 0.5 7 1.5
v 0.5 7 -1.5
v 0.5 7 -2.5
v 0.5 8 2.5
v 0.5 8 1.5
v 0.5 8 -1.5
v 0.5 8 -2.5
v 1.5 0 3.5
v 1.5 0 2.5
v 1.5 0 -2.5
v 1.5 0 -3.5
v 1.5 3 3.5
v 1.5 3 2.5
v 1.5 3 -2.5
v 1.5 3 -3.5
v 1.5 7 1.5
v 1.5 7 0.5
v 1.5 7 -0.5
v 1.5 7 -1.5
v 1.5 8 1.5
v 1.5 8 0.5
v 1.5 8 -0.5
v 1.5 8 -1.5
v -1.5 0 3.5
v -1.5 0 2.5
v -1.5 0 -2.5
v -1.5 0 -3.5
v -1.5 3 3.5
v -1.5 3 2.5
v -1.5 3 -2.5
v -1.5 3 -3.5
v -1.5 7 1.5
v -1.5 7 0.5
v -1.5 7 -0.5
v -1.5 7 -1.5
v -1.5 8 1.5
v -1.5 8 0.5
v -1.5 8 -0.5
v -1.5 8 -1.5
v -0.5 7 2.5
v -0.5 7 1.5
v -0.5 7 -1.5
v -0.5 7 -2.5
v -0.5 8 2.5
v -0.5 8 1.5
v -0.5 8 -1.5
v -0.5 8 -2.5
v 2.5 0 1.5
v 2.5 0 -1.5
v 2.5 3 2.5
v 2.5 3 1.5
v 2.5 3 0.5
v 2.5 3 -0.5
v 2.5 3 -1.5
v 2.5 3 -2.5
v 2.5 5 1.5
v 2.5 5 0.5
v 2.5 5 -0.5
v 2.5 5 -1.5
v 2.5 6 1.5
v 2.5 6 -1.5
v 2.5 7 0.5
v 2.5 7 -0.5
v 2.5 8 2.5
v 2.5 8 0.5
v 2.5 8 -0.5
v 2.5 8 -2.5
v 3.5 0 3.5
v 3.5 0 1.5
v 3.5 0 -1.5
v 3.5 0 -3.5
v 3.5 3 3.5
v 3.5 3 1.5
v 3.5 3 -1.5
v 3.5 3 -3.5
v -3.5 0 3.5
v -3.5 3 3.5
v -1.5 0 3.5
v -1.5 3 3.5
v 1.5 0 3.5
v 1.5 3 3.5
v 3.5 0 3.5
v 3.5 3 3.5
v -2.5 3 2.5
v -2.5 8 2.5
v -1.5 0 2.5
v -1.5 3 2.5
v -1.5 5 2.5
v -1.5 6 2.5
v -0.5 3 2.5
v -0.5 5 2.5
v -0.5 7 2.5
v -0.5 8 2.5
v 0.5 3 2.5
v 0.5 5 2.5
v 0.5 7 2.5
v 0.5 8 2.5
v 1.5 0 2.5
v 1.5 3 2.5
v 1.5 5 2.5
v 1.5 6 2.5
v 2.5 3 2.5
v 2.5 8 2.5
v -2.5 7 -0.5
v -2.5 8 -0.5
v -1.5 7 -0.5
v -1.5 8 -0.5
v 1.5 7 -0.5
v 1.5 8 -0.5
v 2.5 7 -0.5
v 2.5 8 -0.5
v -3.5 0 -1.5
v -3.5 3 -1.5
v -2.5 0 -1.5
v -2.5 3 -1.5
v -1.5 7 -1.5
v -1.5 8 -1.5
v -0.5 7 -1.5
v -0.5 8 -1.5
v 0.5 7 -1.5
v 0.5 8 -1.5
v 1.5 7 -1.5
v 1.5 8 -1.5
v 2.5 0 -1.5
v 2.5 3 -1.5
v 3.5 0 -1.5
v 3.5 3 -1.5
v -3.5 0 1.5
v -3.5 3 1.5
v -2.5 0 1.5
v -2.5 3 1.5
v -1.5 7 1.5
v -1.5 8 1.5
v -0.5 7 1.5
v -0.5 8 1.5
v 0.5 7 1.5
v 0.5 8 1.5
v 1.5 7 1.5
v 1.5 8 1.5
v 2.5 0 1.5
v 2.5 3 1.5
v 3.5 0 1.5
v 3.5 3 1.5
v -2.5 7 0.5
v -2.5 8 0.5
v -1.5 7 0.5
v -1.5 8 0.5
v 1.5 7 0.5
v 1.5 8 0.5
v 2.5 7 0.5
v 2.5 8 0.5
v -2.5 3 -2.5
v -2.5 8 -2.5
v -1.5 0 -2.5
v -1.5 3 -2.5
v -1.5 5 -2.5
v -1.5 6 -2.5
v -0.5 3 -2.5
v -0.5 5 -2.5
v -0.5 7 -2.5
v -0.5 8 -2.5
v 0.5 3 -2.5
v 0.5 5 -2.5
v 0.5 7 -2.5
v 0.5 8 -2.5
v 1.5 0 -2.5
v 1.5 3 -2.5
v 1.5 5 -2.5
v 1.5 6 -2.5
v 2.5 3 -2.5
v 2.5 8 -2.5
v -3.5 0 -3.5
v -3.5 3 -3.5
v -1.5 0 -3.5
v -1.5 3 -3.5
v 1.5 0 -3.5
v 1.5 3 -3.5
v 3.5 0 -3.5
v 3.5 3 -3.5
v -3.5 0 3.5
v -1.5 0 3.5
v 1.5 0 3.5
v 3.5 0 3.5
v -2.5 0 2.5
v -1.5 0 2.5
v 1.5 0 2.5
v 2.5 0 2.5
v -3.5 0 1.5
v -2.5 0 1.5
v 2.5 0 1.5
v 3.5 0 1.5
v -3.5 0 -1.5
v -2.5 0 -1.5
v 2.5 0 -1.5
v 3.5 0 -1.5
v -2.5 0 -2.5
v -1.5 0 -2.5
v 1.5 0 -2.5
v 2.5 0 -2.5
v -3.5 0 -3.5
v -1.5 0 -3.5
v 1.5 0 -3.5
v 3.5 0 -3.5
v -3.5 3 3.5
v -1.5 3 3.5
v 1.5 3 3.5
v 3.5 3 3.5
v -2.5 3 2.5
v -1.5 3 2.5
v 1.5 3 2.5
v 2.5 3 2.5
v -3.5 3 1.5
v -2.5 3 1.5
v 2.5 3 1.5
v 3.5 3 1.5
v -3.5 3 -1.5
v -2.5 3 -1.5
v 2.5 3 -1.5
v 3.5 3 -1.5
v -2.5 3 -2.5
v -1.5 3 -2.5
v 1.5 3 -2.5
v 2.5 3 -2.5
v -3.5 3 -3.5
v -1.5 3 -3.5
v 1.5 3 -3.5
v 3.5 3 -3.5
v -0.5 7 2.5
v 0.5 7 2.5
v -1.5 7 1.5
v -0.5 7 1.5
v 0.5 7 1.5
v 1.5 7 1.5
v -2.5 7 0.5
v -1.5 7 0.5
v 1.5 7 0.5
v 2.5 7 0.5
v -2.5 7 -0.5
v -1.5 7 -0.5
v 1.5 7 -0.5
v 2.5 7 -0.5
v -1.5 7 -1.5
v -0.5 7 -1.5
v 0.5 7 -1.5
v 1.5 7 -1.5
v -0.5 7 -2.5
v 0.5 7 -2.5
v -2.5 8 2.5
v -0.5 8 2.5
v 0.5 8 2.5
v 2.5 8 2.5
v -1.5 8 1.5
v -0.5 8 1.5
v 0.5 8 1.5
v 1.5 8 1.5
v -2.5 8 0.5
v -1.5 8 0.5
v 1.5 8 0.5
v 2.5 8 0.5
v -2.5 8 -0.5
v -1.5 8 -0.5
v 1.5 8 -0.5
v 2.5 8 -0.5
v -1.5 8 -1.5
v -0.5 8 -1.5
v 0.5 8 -1.5
v 1.5 8 -1.5
v -2.5 8 -2.5
v -0.5 8 -2.5
v 0.5 8 -2.5
v 2.5 8 -2.5

# faces
f 5/1/1 2/1/1 1/1/1
f 6/1/1 2/1/1 5/1/1
f 7/1/1 4/1/1 3/1/1
f 8/1/1 4/1/1 7/1/1
f 12/2/1 10/2/1 9/2/1
f 13/2/1 10/2/1 12/2/1
f 14/2/1 10/2/1 13/2/1
f 15/2/1 10/2/1 14/2/1
f 17/2/1 12/2/1 11/2/1
f 17/2/1 13/2/1 12/2/1
f 18/1/1 14/1/1 13/1/1
f 18/2/1 13/2/1 17/2/1
f 19/2/1 16/2/1 15/2/1
f 19/1/1 14/1/1 18/1/1
f 19/2/1 15/2/1 14/2/1
f 20/2/1 16/2/1 19/2/1
f 21/1/1 18/1/1 17/1/1
f 21/2/1 17/2/1 11/2/1
f 21/1/1 20/1/1 19/1/1
f 21/1/1 19/1/1 18/1/1
f 22/2/1 16/2/1 20/2/1
f 22/1/1 20/1/1 21/1/1
f 23/2/1 22/2/1 21/2/1
f 24/2/1 22/2/1 23/2/1
f 25/2/1 21/2/1 11/2/1
f 25/2/1 23/2/1 21/2/1
f 26/2/1 23/2/1 25/2/1
f 27/2/1 22/2/1 24/2/1
f 28/2/1 16/2/1 22/2/1
f 28/2/1 22/2/1 27/2/1
f 33/2/1 30/2/1 29/2/1
f 34/2/1 30/2/1 33/2/1
f 35/2/1 32/2/1 31/2/1
f 36/2/1 32/2/1 35/2/1
f 41/1/1 38/1/1 37/1/1
f 42/1/1 38/1/1 41/1/1
f 43/1/1 40/1/1 39/1/1
f 44/1/1 40/1/1 43/1/1
f 49/2/1 46/2/1 45/2/1
f 50/2/1 46/2/1 49/2/1
f 51/2/1 48/2/1 47/2/1
f 52/2/1 48/2/1 51/2/1
f 53/1/2 54/1/2 57/1/2
f 57/1/2 54/1/2 58/1/2
f 55/1/2 56/1/2 59/1/2
f 59/1/2 56/1/2 60/1/2
f 61/2/2 62/2/2 65/2/2
f 65/2/2 62/2/2 66/2/2
f 63/2/2 64/2/2 67/2/2
f 67/2/2 64/2/2 68/2/2
f 69/2/2 70/2/2 73/2/2
f 73/2/2 70/2/2 74/2/2
f 71/2/2 72/2/2 75/2/2
f 75/2/2 72/2/2 76/2/2
f 77/2/2 78/2/2 80/2/2
f 80/2/2 78/2/2 81/2/2
f 81/2/2 78/2/2 82/2/2
f 82/2/2 78/2/2 83/2/2
f 79/2/2 80/2/2 85/2/2
f 80/2/2 81/2/2 85/2/2
f 81/1/2 82/1/2 86/1/2
f 85/2/2 81/2/2 86/2/2
f 83/2/2 84/2/2 87/2/2
f 86/1/2 82/1/2 87/1/2
f 82/2/2 83/2/2 87/2/2
f 87/2/2 84/2/2 88/2/2
f 85/1/2 86/1/2 89/1/2
f 79/2/2 85/2/2 89/2/2
f 87/1/2 88/1/2 89/1/2
f 86/1/2 87/1/2 89/1/2
f 88/2/2 84/2/2 90/2/2
f 89/1/2 88/1/2 90/1/2
f 89/2/2 90/2/2 91/2/2
f 91/2/2 90/2/2 92/2/2
f 79/2/2 89/2/2 93/2/2
f 89/2/2 91/2/2 93/2/2
f 93/2/2 91/2/2 94/2/2
f 92/2/2 90/2/2 95/2/2
f 90/2/2 84/2/2 96/2/2
f 95/2/2 90/2/2 96/2/2
f 97/1/2 98/1/2 101/1/2
f 101/1/2 98/1/2 102/1/2
f 99/1/2 100/1/2 103/1/2
f 103/1/2 100/1/2 104/1/2
f 107/1/3 106/1/3 105/1/3
f 108/1/3 106/1/3 107/1/3
f 111/1/3 110/1/3 109/1/3
f 112/1/3 110/1/3 111/1/3
f 116/2/3 114/2/3 113/2/3
f 117/2/3 114/2/3 116/2/3
f 118/2/3 114/2/3 117/2/3
f 119/2/3 116/2/3 115/2/3
f 119/2/3 117/2/3 116/2/3
f 120/1/3 118/1/3 117/1/3
f 120/2/3 117/2/3 119/2/3
f 121/2/3 114/2/3 118/2/3
f 122/2/3 114/2/3 121/2/3
f 123/2/3 119/2/3 115/2/3
f 123/1/3 120/1/3 119/1/3
f 124/1/3 118/1/3 120/1/3
f 124/1/3 120/1/3 123/1/3
f 125/2/3 121/2/3 118/2/3
f 127/2/3 123/2/3 115/2/3
f 127/2/3 124/2/3 123/2/3
f 128/2/3 124/2/3 127/2/3
f 129/1/3 118/1/3 124/1/3
f 129/2/3 124/2/3 128/2/3
f 130/2/3 126/2/3 125/2/3
f 130/1/3 118/1/3 129/1/3
f 130/2/3 125/2/3 118/2/3
f 131/2/3 129/2/3 128/2/3
f 131/2/3 130/2/3 129/2/3
f 132/2/3 126/2/3 130/2/3
f 132/2/3 130/2/3 131/2/3
f 135/2/3 134/2/3 133/2/3
f 136/2/3 134/2/3 135/2/3
f 139/2/3 138/2/3 137/2/3
f 140/2/3 138/2/3 139/2/3
f 143/1/3 142/1/3 141/1/3
f 144/1/3 142/1/3 143/1/3
f 147/2/3 146/2/3 145/2/3
f 148/2/3 146/2/3 147/2/3
f 151/2/3 150/2/3 149/2/3
f 152/2/3 150/2/3 151/2/3
f 155/1/3 154/1/3 153/1/3
f 156/1/3 154/1/3 155/1/3
f 157/1/4 158/1/4 159/1/4
f 159/1/4 158/1/4 160/1/4
f 161/2/4 162/2/4 163/2/4
f 163/2/4 162/2/4 164/2/4
f 165/2/4 166/2/4 167/2/4
f 167/2/4 166/2/4 168/2/4
f 169/1/4 170/1/4 171/1/4
f 171/1/4 170/1/4 172/1/4
f 173/2/4 174/2/4 175/2/4
f 175/2/4 174/2/4 176/2/4
f 177/2/4 178/2/4 179/2/4
f 179/2/4 178/2/4 180/2/4
f 181/2/4 182/2/4 184/2/4
f 184/2/4 182/2/4 185/2/4
f 185/2/4 182/2/4 186/2/4
f 183/2/4 184/2/4 187/2/4
f 184/2/4 185/2/4 187/2/4
f 185/1/4 186/1/4 188/1/4
f 187/2/4 185/2/4 188/2/4
f 186/2/4 182/2/4 189/2/4
f 189/2/4 182/2/4 190/2/4
f 183/2/4 187/2/4 191/2/4
f 187/1/4 188/1/4 191/1/4
f 188/1/4 186/1/4 192/1/4
f 191/1/4 188/1/4 192/1/4
f 186/2/4 189/2/4 193/2/4
f 183/2/4 191/2/4 195/2/4
f 191/2/4 192/2/4 195/2/4
f 195/2/4 192/2/4 196/2/4
f 192/1/4 186/1/4 197/1/4
f 196/2/4 192/2/4 197/2/4
f 193/2/4 194/2/4 198/2/4
f 197/1/4 186/1/4 198/1/4
f 186/2/4 193/2/4 198/2/4
f 196/2/4 197/2/4 199/2/4
f 197/2/4 198/2/4 199/2/4
f 198/2/4 194/2/4 200/2/4
f 199/2/4 198/2/4 200/2/4
f 201/1/4 202/1/4 203/1/4
f 203/1/4 202/1/4 204/1/4
f 205/1/4 206/1/4 207/1/4
f 207/1/4 206/1/4 208/1/4
f 213/1/5 210/1/5 209/1/5
f 214/1/5 210/1/5 213/1/5
f 215/1/5 212/1/5 211/1/5
f 216/1/5 212/1/5 215/1/5
f 217/1/5 213/1/5 209/1/5
f 218/2/5 214/2/5 213/2/5
f 218/1/5 213/1/5 217/1/5
f 218/2/5 215/2/5 214/2/5
f 218/2/5 216/2/5 215/2/5
f 219/1/5 212/1/5 216/1/5
f 219/2/5 216/2/5 218/2/5
f 220/1/5 212/1/5 219/1/5
f 222/2/5 219/2/5 218/2/5
f 223/2/5 219/2/5 222/2/5
f 225/1/5 222/1/5 221/1/5
f 225/2/5 223/2/5 222/2/5
f 226/2/5 223/2/5 225/2/5
f 227/2/5 223/2/5 226/2/5
f 228/1/5 224/1/5 223/1/5
f 228/2/5 223/2/5 227/2/5
f 229/1/5 225/1/5 221/1/5
f 229/1/5 226/1/5 225/1/5
f 230/1/5 226/1/5 229/1/5
f 231/1/5 228/1/5 227/1/5
f 232/1/5 224/1/5 228/1/5
f 232/1/5 228/1/5 231/1/5
f 233/1/6 234/1/6 237/1/6
f 237/1/6 234/1/6 238/1/6
f 235/1/6 236/1/6 239/1/6
f 239/1/6 236/1/6 240/1/6
f 233/1/6 237/1/6 241/1/6
f 241/1/6 237/1/6 242/1/6
f 240/1/6 236/1/6 243/1/6
f 243/1/6 236/1/6 244/1/6
f 245/1/6 246/1/6 249/1/6
f 247/1/6 248/1/6 252/1/6
f 249/1/6 250/1/6 253/1/6
f 245/1/6 249/1/6 253/1/6
f 253/1/6 250/1/6 254/1/6
f 251/1/6 252/1/6 255/1/6
f 252/1/6 248/1/6 256/1/6
f 255/1/6 252/1/6 256/1/6
f 257/2/6 258/2/6 260/2/6
f 260/2/6 258/2/6 261/2/6
f 259/3/6 260/3/6 264/3/6
f 261/3/6 262/3/6 264/3/6
f 260/3/6 261/3/6 264/3/6
f 264/3/6 262/3/6 265/3/6
f 263/2/6 264/2/6 267/2/6
f 264/3/6 265/3/6 268/3/6
f 267/2/6 264/2/6 268/2/6
f 265/2/6 266/2/6 269/2/6
f 268/3/6 265/3/6 269/3/6
f 269/2/6 266/2/6 270/2/6
f 268/3/6 269/3/6 271/3/6
f 271/3/6 269/3/6 272/3/6
f 272/3/6 269/3/6 273/3/6
f 273/3/6 269/3/6 274/3/6
f 272/2/6 273/2/6 275/2/6
f 275/2/6 273/2/6 276/2/6
f 277/2/6 278/2/6 281/2/6
f 281/2/6 278/2/6 282/2/6
f 279/2/6 280/2/6 283/2/6
f 283/2/6 280/2/6 284/2/6
f 277/2/6 281/2/6 285/2/6
f 285/2/6 281/2/6 286/2/6
f 284/2/6 280/2/6 287/2/6
f 287/2/6 280/2/6 288/2/6
f 289/2/6 290/2/6 293/2/6
f 291/2/6 292/2/6 296/2/6
f 293/2/6 294/2/6 297/2/6
f 289/2/6 293/2/6 297/2/6
f 297/2/6 294/2/6 298/2/6
f 295/2/6 296/2/6 299/2/6
f 296/2/6 292/2/6 300/2/6
f 299/2/6 296/2/6 300/2/6
