# MagicaVoxel @ Ephtracy

# material
mtllib Tree_3.mtl
usemtl palette

# normals
vn -1 0 0
vn 1 0 0
vn 0 0 1
vn 0 0 -1
vn 0 -1 0
vn 0 1 0

# texcoords
vt 0.689453 0.5
vt 0.693359 0.5

# verts
v -3 2 -0.5
v -3 2 -2.5
v -3 4 -0.5
v -3 4 -2.5
v -2 1 0.5
v -2 1 -2.5
v -2 2 -0.5
v -2 2 -2.5
v -2 2 -3.5
v -2 4 0.5
v -2 4 -0.5
v -2 4 -2.5
v -2 4 -3.5
v -1 0 0.5
v -1 0 -1.5
v -1 1 3.5
v -1 1 0.5
v -1 1 -1.5
v -1 1 -2.5
v -1 1 -3.5
v -1 2 -2.5
v -1 2 -3.5
v -1 3 3.5
v -1 3 1.5
v -1 4 1.5
v -1 4 0.5
v -1 4 -2.5
v -1 5 0.5
v -1 5 -2.5
v 0 4 -1.5
v 0 4 -2.5
v 0 5 -1.5
v 0 5 -2.5
v 1 0 0.5
v 1 0 -1.5
v 1 1 3.5
v 1 1 2.5
v 1 1 0.5
v 1 1 -1.5
v 1 1 -2.5
v 1 1 -3.5
v 1 3 3.5
v 1 3 2.5
v 1 3 1.5
v 1 3 0.5
v 1 4 1.5
v 1 4 0.5
v 1 4 -1.5
v 1 4 -2.5
v 1 4 -3.5
v 1 5 0.5
v 1 5 -1.5
v 2 1 2.5
v 2 1 -2.5
v 2 2 -0.5
v 2 2 -1.5
v 2 3 2.5
v 2 3 0.5
v 2 3 -0.5
v 2 3 -1.5
v 2 4 0.5
v 2 4 -2.5
v 3 2 -0.5
v 3 2 -1.5
v 3 3 -0.5
v 3 3 -1.5
v -1 1 3.5
v -1 3 3.5
v 1 1 3.5
v 1 3 3.5
v 1 1 2.5
v 1 3 2.5
v 2 1 2.5
v 2 3 2.5
v -1 3 1.5
v -1 4 1.5
v 1 3 1.5
v 1 4 1.5
v -2 1 0.5
v -2 4 0.5
v -1 0 0.5
v -1 1 0.5
v -1 4 0.5
v -1 5 0.5
v 1 0 0.5
v 1 1 0.5
v 1 3 0.5
v 1 4 0.5
v 1 5 0.5
v 2 3 0.5
v 2 4 0.5
v -3 2 -0.5
v -3 4 -0.5
v -2 2 -0.5
v -2 4 -0.5
v 2 2 -0.5
v 2 3 -0.5
v 3 2 -0.5
v 3 3 -0.5
v -1 0 -1.5
v -1 1 -1.5
v 0 4 -1.5
v 0 5 -1.5
v 1 0 -1.5
v 1 1 -1.5
v 1 4 -1.5
v 1 5 -1.5
v 2 2 -1.5
v 2 3 -1.5
v 3 2 -1.5
v 3 3 -1.5
v -3 2 -2.5
v -3 4 -2.5
v -2 1 -2.5
v -2 2 -2.5
v -2 4 -2.5
v -1 1 -2.5
v -1 2 -2.5
v -1 4 -2.5
v -1 5 -2.5
v 0 4 -2.5
v 0 5 -2.5
v 1 1 -2.5
v 1 4 -2.5
v 2 1 -2.5
v 2 4 -2.5
v -2 2 -3.5
v -2 4 -3.5
v -1 1 -3.5
v -1 2 -3.5
v 1 1 -3.5
v 1 4 -3.5
v -1 0 0.5
v 1 0 0.5
v -1 0 -1.5
v 1 0 -1.5
v -1 1 3.5
v 1 1 3.5
v 1 1 2.5
v 2 1 2.5
v -2 1 0.5
v -1 1 0.5
v 1 1 0.5
v -1 1 -1.5
v 1 1 -1.5
v -2 1 -2.5
v -1 1 -2.5
v 1 1 -2.5
v 2 1 -2.5
v -1 1 -3.5
v 1 1 -3.5
v -3 2 -0.5
v -2 2 -0.5
v 2 2 -0.5
v 3 2 -0.5
v 2 2 -1.5
v 3 2 -1.5
v -3 2 -2.5
v -2 2 -2.5
v -1 2 -2.5
v -2 2 -3.5
v -1 2 -3.5
v -1 3 3.5
v 1 3 3.5
v 1 3 2.5
v 2 3 2.5
v -1 3 1.5
v 1 3 1.5
v 1 3 0.5
v 2 3 0.5
v 2 3 -0.5
v 3 3 -0.5
v 2 3 -1.5
v 3 3 -1.5
v -1 4 1.5
v 1 4 1.5
v -2 4 0.5
v -1 4 0.5
v 1 4 0.5
v 2 4 0.5
v -3 4 -0.5
v -2 4 -0.5
v 0 4 -1.5
v 1 4 -1.5
v -3 4 -2.5
v -2 4 -2.5
v -1 4 -2.5
v 0 4 -2.5
v 1 4 -2.5
v 2 4 -2.5
v -2 4 -3.5
v 1 4 -3.5
v -1 5 0.5
v 1 5 0.5
v 0 5 -1.5
v 1 5 -1.5
v -1 5 -2.5
v 0 5 -2.5

# faces
f 3/2/1 2/2/1 1/2/1
f 4/2/1 2/2/1 3/2/1
f 7/2/1 6/2/1 5/2/1
f 8/2/1 6/2/1 7/2/1
f 10/2/1 7/2/1 5/2/1
f 11/2/1 7/2/1 10/2/1
f 12/2/1 9/2/1 8/2/1
f 13/2/1 9/2/1 12/2/1
f 17/1/1 15/1/1 14/1/1
f 18/1/1 15/1/1 17/1/1
f 21/2/1 20/2/1 19/2/1
f 22/2/1 20/2/1 21/2/1
f 23/2/1 17/2/1 16/2/1
f 24/2/1 17/2/1 23/2/1
f 25/2/1 17/2/1 24/2/1
f 26/2/1 17/2/1 25/2/1
f 28/2/1 27/2/1 26/2/1
f 29/2/1 27/2/1 28/2/1
f 30/2/2 31/2/2 32/2/2
f 32/2/2 31/2/2 33/2/2
f 34/1/2 35/1/2 38/1/2
f 38/1/2 35/1/2 39/1/2
f 36/2/2 37/2/2 42/2/2
f 42/2/2 37/2/2 43/2/2
f 44/2/2 45/2/2 46/2/2
f 46/2/2 45/2/2 47/2/2
f 40/2/2 41/2/2 49/2/2
f 49/2/2 41/2/2 50/2/2
f 47/2/2 48/2/2 51/2/2
f 51/2/2 48/2/2 52/2/2
f 53/2/2 54/2/2 55/2/2
f 55/2/2 54/2/2 56/2/2
f 53/2/2 55/2/2 57/2/2
f 57/2/2 55/2/2 58/2/2
f 58/2/2 55/2/2 59/2/2
f 56/2/2 54/2/2 60/2/2
f 58/2/2 59/2/2 61/2/2
f 59/2/2 60/2/2 61/2/2
f 60/2/2 54/2/2 62/2/2
f 61/2/2 60/2/2 62/2/2
f 63/2/2 64/2/2 65/2/2
f 65/2/2 64/2/2 66/2/2
f 69/2/3 68/2/3 67/2/3
f 70/2/3 68/2/3 69/2/3
f 73/2/3 72/2/3 71/2/3
f 74/2/3 72/2/3 73/2/3
f 77/2/3 76/2/3 75/2/3
f 78/2/3 76/2/3 77/2/3
f 82/2/3 80/2/3 79/2/3
f 83/2/3 80/2/3 82/2/3
f 85/1/3 82/1/3 81/1/3
f 86/1/3 82/1/3 85/1/3
f 88/2/3 84/2/3 83/2/3
f 89/2/3 84/2/3 88/2/3
f 90/2/3 88/2/3 87/2/3
f 91/2/3 88/2/3 90/2/3
f 94/2/3 93/2/3 92/2/3
f 95/2/3 93/2/3 94/2/3
f 98/2/3 97/2/3 96/2/3
f 99/2/3 97/2/3 98/2/3
f 100/1/4 101/1/4 104/1/4
f 104/1/4 101/1/4 105/1/4
f 102/2/4 103/2/4 106/2/4
f 106/2/4 103/2/4 107/2/4
f 108/2/4 109/2/4 110/2/4
f 110/2/4 109/2/4 111/2/4
f 112/2/4 113/2/4 115/2/4
f 115/2/4 113/2/4 116/2/4
f 114/2/4 115/2/4 117/2/4
f 117/2/4 115/2/4 118/2/4
f 119/2/4 120/2/4 121/2/4
f 121/2/4 120/2/4 122/2/4
f 123/2/4 124/2/4 125/2/4
f 125/2/4 124/2/4 126/2/4
f 127/2/4 128/2/4 130/2/4
f 129/2/4 130/2/4 131/2/4
f 130/2/4 128/2/4 132/2/4
f 131/2/4 130/2/4 132/2/4
f 135/1/5 134/1/5 133/1/5
f 136/1/5 134/1/5 135/1/5
f 139/2/5 138/2/5 137/2/5
f 142/2/5 139/2/5 137/2/5
f 142/2/5 140/2/5 139/2/5
f 143/2/5 140/2/5 142/2/5
f 144/2/5 142/2/5 141/2/5
f 145/2/5 140/2/5 143/2/5
f 146/2/5 144/2/5 141/2/5
f 146/2/5 145/2/5 144/2/5
f 147/2/5 145/2/5 146/2/5
f 148/2/5 140/2/5 145/2/5
f 148/2/5 145/2/5 147/2/5
f 149/2/5 140/2/5 148/2/5
f 150/2/5 148/2/5 147/2/5
f 151/2/5 148/2/5 150/2/5
f 156/2/5 155/2/5 154/2/5
f 157/2/5 155/2/5 156/2/5
f 158/2/5 153/2/5 152/2/5
f 159/2/5 153/2/5 158/2/5
f 161/2/5 160/2/5 159/2/5
f 162/2/5 160/2/5 161/2/5
f 163/2/6 164/2/6 165/2/6
f 163/2/6 165/2/6 167/2/6
f 165/2/6 166/2/6 167/2/6
f 167/2/6 166/2/6 168/2/6
f 168/2/6 166/2/6 169/2/6
f 169/2/6 166/2/6 170/2/6
f 171/2/6 172/2/6 173/2/6
f 173/2/6 172/2/6 174/2/6
f 175/2/6 176/2/6 178/2/6
f 178/2/6 176/2/6 179/2/6
f 177/2/6 178/2/6 182/2/6
f 179/2/6 180/2/6 184/2/6
f 181/2/6 182/2/6 185/2/6
f 182/2/6 178/2/6 186/2/6
f 185/2/6 182/2/6 186/2/6
f 186/2/6 178/2/6 187/2/6
f 183/2/6 184/2/6 188/2/6
f 184/2/6 180/2/6 189/2/6
f 188/2/6 184/2/6 189/2/6
f 189/2/6 180/2/6 190/2/6
f 186/2/6 187/2/6 191/2/6
f 187/2/6 188/2/6 191/2/6
f 188/2/6 189/2/6 191/2/6
f 191/2/6 189/2/6 192/2/6
f 193/2/6 194/2/6 195/2/6
f 195/2/6 194/2/6 196/2/6
f 193/2/6 195/2/6 197/2/6
f 197/2/6 195/2/6 198/2/6
