# Blender v2.77 (sub 0) OBJ File: ''
# www.blender.org
mtllib Drake.mtl
o LilDrake_LilDrake.001
v -5.000008 1.999995 -2.000003
v -3.000004 1.999995 -2.000003
v -5.000008 5.000000 -2.000003
v -5.000008 3.999998 -1.000001
v -5.000008 5.000000 -1.000001
v -4.000007 3.999999 -2.000003
v -5.000008 1.999995 0.000001
v -4.000006 5.000000 -2.000002
v -4.000007 3.999998 -1.000001
v -5.000008 3.999998 0.000001
v -4.000006 5.000000 -1.000001
v -3.000005 -0.000009 -1.000002
v -3.000004 0.999993 0.999991
v -1.000001 -0.000008 -1.000002
v -3.000004 1.999995 -1.000001
v -3.000004 1.999995 0.000001
v -3.000004 2.999997 -4.000006
v -3.000004 3.999999 -2.000003
v -1.000001 3.999999 -4.000006
v -1.000001 2.999997 -5.000009
v -1.000001 2.999997 -4.000006
v -1.000001 3.999999 -5.000008
v -1.000001 5.000001 -5.000008
v -1.000001 5.000000 -4.000006
v -3.000004 2.999997 -2.000003
v -3.000005 2.999997 -1.000001
v -3.000004 3.999998 0.000001
v -3.000004 5.999991 0.000001
v -1.000001 2.999996 -1.000001
v -1.000001 2.999996 0.999992
v -3.000004 -0.000009 1.999993
v -1.000001 0.999993 0.999991
v -3.000004 0.999992 1.999993
v -1.000001 -0.000009 1.999993
v -1.000001 0.999993 1.999993
v -3.000004 2.999996 0.999992
v -3.000004 2.999996 1.999993
v -3.000004 3.999998 1.999994
v -3.000004 5.000000 2.999996
v -3.000004 3.999997 5.000000
v 1.999994 2.999996 1.999993
v 0.999992 5.000000 1.999994
v -3.000005 5.000000 3.999998
v -2.000002 5.000000 2.999996
v -3.000004 5.999990 5.000000
v -2.000002 4.999999 5.000000
v 0.999992 5.000000 2.999996
v -2.000002 5.000000 3.999998
v 0.999992 4.999999 4.999999
v -5.000008 5.999991 -2.000003
v -5.000007 6.999993 -2.000002
v -5.000008 6.999993 0.000001
v -5.000008 5.999991 0.000001
v -4.000006 6.999993 -2.000002
v -4.000007 7.999995 -2.000002
v -4.000006 6.999993 0.000001
v -4.000007 7.999995 0.000002
v -3.000004 5.999991 -4.000006
v -3.000004 5.999991 -3.000004
v -3.000004 7.999995 -3.000004
v -1.000001 6.999993 -3.000004
v -1.000001 5.999992 -5.000008
v -1.000001 5.999991 -4.000006
v -1.000001 6.999993 -4.000006
v -3.000004 5.999991 -2.000002
v -1.000001 7.999995 -3.000004
v -1.000001 7.999995 -4.000005
v -3.000004 8.999996 -2.000002
v -3.000004 7.999995 -2.000002
v 1.999994 7.999995 -2.000002
v -1.000001 8.999997 -2.000002
v -1.000001 8.999996 -1.000000
v -1.000001 8.999996 0.000002
v -1.000001 9.999999 -2.000002
v -1.000001 9.999998 -1.000000
v -1.000001 9.999998 0.000002
v -3.000004 5.999990 2.999996
v -2.000002 5.000000 1.999994
v -3.000004 7.999995 0.000002
v -2.000002 5.999990 1.999994
v -2.000002 5.999990 2.999996
v 0.999992 5.999990 1.999994
v -3.000004 5.999990 3.999998
v -2.000002 5.999990 3.999998
v -2.000002 5.999990 4.999999
v -3.000004 8.999996 3.999998
v -0.500000 7.604166 3.999998
v -0.500000 5.999990 3.999998
v -1.000001 8.999996 0.999993
v -1.000001 8.999996 1.999994
v -1.000001 9.999998 0.999993
v -1.000001 9.999998 1.999995
v -1.000001 8.999995 2.999996
v 1.999994 8.999996 3.999998
v -1.000001 9.999998 2.999997
v -0.000010 -0.000009 -1.000002
v -0.000010 0.999993 0.999991
v 1.999994 1.999995 -1.000001
v 1.999994 -0.000009 -1.000002
v 1.999994 0.999993 0.999991
v 1.999994 1.999995 -2.000003
v 1.999994 1.999995 0.000001
v -0.000010 2.999997 -5.000009
v -0.000010 2.999997 -4.000006
v -0.000010 3.999999 -5.000008
v -0.000010 3.999999 -4.000006
v -0.000010 5.000000 -4.000006
v 1.999994 2.999997 -4.000006
v 1.999994 3.999999 -2.000003
v -0.000010 2.999996 -1.000001
v 1.999994 2.999997 -2.000003
v 1.999994 2.999996 -1.000001
v 1.999994 5.999991 0.000001
v 3.999998 1.999995 -2.000003
v 3.999998 1.999995 0.000001
v 2.999996 3.999999 -2.000003
v 2.999996 5.000000 -2.000002
v 2.999996 3.999998 -1.000001
v 1.999994 3.999998 0.000001
v 2.999996 5.000000 -1.000001
v 3.999998 5.000000 -2.000002
v 3.999998 3.999998 -1.000001
v 3.999997 3.999998 0.000001
v 3.999998 5.000000 -1.000001
v -0.000010 -0.000009 1.999993
v -0.000010 0.999992 1.999993
v 1.999994 -0.000009 1.999993
v 1.999994 0.999993 1.999993
v -0.000010 2.999996 0.999992
v 1.999993 3.999998 1.999993
v 1.999994 3.999997 5.000000
v 1.999993 2.999996 0.999992
v 1.999994 5.000000 2.999996
v 0.999992 5.000000 3.999998
v 1.999994 5.000000 3.999997
v 1.999994 5.999990 4.999999
v -0.000010 5.000001 -5.000008
v -0.000010 5.999992 -5.000008
v -0.000010 5.999991 -4.000006
v 1.999993 5.999991 -3.000004
v -0.000010 6.999993 -4.000005
v -0.000010 6.999993 -3.000004
v 1.999994 5.999991 -4.000005
v 1.999994 5.999991 -2.000002
v 1.999994 7.999995 0.000002
v -0.000010 7.999995 -4.000005
v 1.999994 7.999995 -3.000004
v -0.000010 8.999997 -2.000002
v -0.000010 7.999995 -3.000004
v -0.000010 8.999996 -1.000000
v -0.000010 9.999999 -2.000002
v -0.000010 9.999998 -1.000000
v -0.000010 9.999998 0.000002
v 1.999994 8.999997 -2.000002
v 1.999994 8.999996 1.041668
v 3.999997 5.999991 -2.000002
v 3.999998 5.999991 0.000001
v 2.999995 6.999993 -2.000002
v 2.999996 6.999993 0.000001
v 2.999996 7.999995 -2.000002
v 3.999998 6.999993 -2.000002
v 3.999998 6.999993 0.000001
v 2.999996 7.999994 0.000001
v 0.999992 5.999990 2.999996
v 1.999993 5.999990 2.999996
v 0.999992 5.999990 3.999998
v 1.999994 5.999990 3.999998
v 0.999992 5.999990 5.000000
v -0.000010 8.999996 0.999993
v -0.000010 8.999996 0.000002
v -0.000010 8.999996 1.999994
v -0.000010 9.999998 0.999993
v -0.000010 9.999998 1.999995
v -0.000010 8.999995 2.999996
v -0.000010 9.999998 2.999996
vt 0.2482 0.7914
vt 0.2482 0.7194
vt 0.2837 0.7194
vt 0.8085 0.1151
vt 0.7730 0.1151
vt 0.7730 0.0791
vt 0.0071 0.8777
vt 0.0426 0.8417
vt 0.0426 0.8777
vt 0.9078 0.1439
vt 0.9078 0.1079
vt 0.9433 0.1079
vt 0.9433 0.1439
vt 0.2837 0.6835
vt 0.3191 0.6835
vt 0.9078 0.3453
vt 0.9078 0.3094
vt 0.9433 0.3094
vt 0.9433 0.3453
vt 0.0922 0.8921
vt 0.0922 0.9281
vt 0.0567 0.9281
vt 0.0567 0.8921
vt 0.1489 0.2950
vt 0.1844 0.2590
vt 0.2199 0.2590
vt 0.0071 0.8058
vt 0.0780 0.8058
vt 0.2553 0.1871
vt 0.1844 0.1871
vt 0.1844 0.1151
vt 0.1277 0.7194
vt 0.1986 0.7194
vt 0.1277 0.7914
vt 0.8085 0.2374
vt 0.7376 0.2374
vt 0.8085 0.2014
vt 0.7872 0.8201
vt 0.7872 0.7842
vt 0.8582 0.7842
vt 0.9433 0.2446
vt 0.9078 0.2446
vt 0.9078 0.2086
vt 0.9433 0.2086
vt 0.8227 0.3381
vt 0.8227 0.2662
vt 0.8936 0.2662
vt 0.7376 0.1295
vt 0.5177 0.2230
vt 0.4468 0.2230
vt 0.4468 0.1151
vt 0.5177 0.1511
vt 0.1489 0.2230
vt 0.1135 0.2230
vt 0.1135 0.1871
vt 0.7376 0.0432
vt 0.7376 0.0072
vt 0.6809 0.9424
vt 0.7163 0.8705
vt 0.7163 0.9424
vt 0.1135 0.3309
vt 0.1135 0.2950
vt 0.1986 0.6835
vt 0.2340 0.6835
vt 0.8582 0.5899
vt 0.8582 0.6978
vt 0.7872 0.6978
vt 0.8723 0.9424
vt 0.8723 0.8705
vt 0.9078 0.9424
vt 0.5674 0.4317
vt 0.5319 0.5396
vt 0.5319 0.4317
vt 0.5177 0.0432
vt 0.4468 0.0432
vt 0.3404 0.0072
vt 0.5177 0.0072
vt 0.6028 0.3957
vt 0.6028 0.4317
vt 0.5674 0.3957
vt 0.0426 0.1511
vt 0.0780 0.1511
vt 0.6312 0.8705
vt 0.6667 0.8705
vt 0.6667 0.9424
vt 0.6312 0.9424
vt 0.0071 0.1871
vt 0.0071 0.1151
vt 0.7021 0.7698
vt 0.7376 0.7338
vt 0.7730 0.7698
vt 0.7376 0.6259
vt 0.7021 0.5899
vt 0.8936 0.2518
vt 0.8227 0.2518
vt 0.8227 0.1799
vt 0.9078 0.5899
vt 0.9078 0.6619
vt 0.8723 0.6619
vt 0.8723 0.5899
vt 0.4113 0.6115
vt 0.3404 0.6835
vt 0.3404 0.6115
vt 0.3759 0.6115
vt 0.2482 0.8417
vt 0.2837 0.8417
vt 0.2482 0.8777
vt 0.8936 0.0791
vt 0.8582 0.0432
vt 0.8936 0.0432
vt 0.7234 0.0072
vt 0.6879 0.0791
vt 0.6879 0.0072
vt 0.5674 0.9568
vt 0.5674 0.9928
vt 0.5319 0.9928
vt 0.5319 0.9568
vt 0.6028 0.7698
vt 0.5674 0.7698
vt 0.5674 0.6978
vt 0.6028 0.5899
vt 0.2553 0.0432
vt 0.1844 0.0432
vt 0.2553 0.0072
vt 0.2837 0.8921
vt 0.2837 0.9281
vt 0.2482 0.9281
vt 0.2482 0.8921
vt 0.4113 0.4173
vt 0.4113 0.4532
vt 0.4113 0.4892
vt 0.3404 0.4892
vt 0.9078 0.4460
vt 0.8723 0.4460
vt 0.8723 0.3741
vt 0.9078 0.3741
vt 0.3404 0.8921
vt 0.3404 0.8201
vt 0.4113 0.8201
vt 0.3191 0.8058
vt 0.3191 0.8777
vt 0.8227 0.0791
vt 0.1915 0.8921
vt 0.1915 0.9281
vt 0.1560 0.9281
vt 0.1560 0.8921
vt 0.6879 0.2014
vt 0.6879 0.2374
vt 0.6525 0.2374
vt 0.6525 0.2014
vt 0.6170 0.7698
vt 0.6170 0.6978
vt 0.6525 0.6978
vt 0.9078 0.8561
vt 0.8723 0.8561
vt 0.8723 0.7842
vt 0.2553 0.1151
vt 0.2908 0.0432
vt 0.8227 0.0072
vt 0.8582 0.0072
vt 0.0780 0.1151
vt 0.7305 0.9568
vt 0.7660 0.9568
vt 0.7660 0.9928
vt 0.7305 0.9928
vt 0.1915 0.9784
vt 0.1560 0.9784
vt 0.1560 0.9424
vt 0.1915 0.9424
vt 0.0426 0.1151
vt 0.0426 0.0072
vt 0.6525 0.2914
vt 0.5319 0.3453
vt 0.5888 0.2914
vt 0.6383 0.3813
vt 0.5319 0.3813
vt 0.9078 0.0072
vt 0.9433 0.0072
vt 0.9433 0.0432
vt 0.9078 0.0432
vt 0.9220 0.9209
vt 0.9220 0.8849
vt 0.9574 0.8849
vt 0.9574 0.9209
vt 0.0922 0.9424
vt 0.0922 0.9784
vt 0.0567 0.9784
vt 0.0567 0.9424
vt 0.9078 0.4964
vt 0.9433 0.4964
vt 0.9433 0.5324
vt 0.9078 0.5324
vt 0.5177 0.2734
vt 0.4113 0.3094
vt 0.3404 0.2734
vt 0.6383 0.2014
vt 0.8227 0.7122
vt 0.8227 0.7482
vt 0.7872 0.7482
vt 0.7872 0.7122
vt 0.9078 0.0935
vt 0.9078 0.0576
vt 0.9433 0.0576
vt 0.9433 0.0935
vt 0.4113 0.3453
vt 0.0780 0.4532
vt 0.0780 0.4892
vt 0.0426 0.5252
vt 0.7376 0.3597
vt 0.8085 0.2878
vt 0.8085 0.3597
vt 0.4468 0.5755
vt 0.4113 0.5755
vt 0.3759 0.5755
vt 0.4468 0.5036
vt 0.7376 0.8201
vt 0.7021 0.8561
vt 0.7021 0.7842
vt 0.7376 0.7842
vt 0.0780 0.7554
vt 0.0071 0.7554
vt 0.0071 0.6835
vt 0.2199 0.4892
vt 0.1489 0.4892
vt 0.1489 0.4173
vt 0.7376 0.2518
vt 0.8085 0.2518
vt 0.3404 0.1511
vt 0.3404 0.1151
vt 0.4113 0.1151
vt 0.3404 0.7698
vt 0.3404 0.6978
vt 0.3759 0.7698
vt 0.4610 0.7338
vt 0.4965 0.6978
vt 0.4965 0.8058
vt 0.4610 0.6978
vt 0.4255 0.9065
vt 0.4610 0.9065
vt 0.4610 0.9424
vt 0.4255 0.9424
vt 0.1418 0.8921
vt 0.1418 0.9281
vt 0.1064 0.9281
vt 0.1064 0.8921
vt 0.9433 0.2950
vt 0.9078 0.2950
vt 0.9078 0.2590
vt 0.9433 0.2590
vt 0.4113 0.8058
vt 0.3759 0.8058
vt 0.4752 0.9065
vt 0.5106 0.9065
vt 0.5106 0.9424
vt 0.4752 0.9424
vt 0.8936 0.0935
vt 0.8936 0.1655
vt 0.8227 0.0935
vt 0.8227 0.1655
vt 0.7730 0.8561
vt 0.7730 0.8201
vt 0.4113 0.2230
vt 0.3404 0.2230
vt 0.1135 0.4173
vt 0.1135 0.3453
vt 0.1135 0.5252
vt 0.1489 0.5612
vt 0.1135 0.5612
vt 0.4255 0.7698
vt 0.4255 0.8058
vt 0.1135 0.7914
vt 0.0780 0.7914
vt 0.0426 0.5612
vt 0.0071 0.5612
vt 0.8085 0.4820
vt 0.7376 0.3741
vt 0.8085 0.3741
vt 0.8723 0.7482
vt 0.8723 0.6763
vt 0.9078 0.6763
vt 0.6028 0.5396
vt 0.6028 0.5755
vt 0.5674 0.5755
vt 0.5674 0.5396
vt 0.1844 0.5971
vt 0.1844 0.6331
vt 0.5106 0.9568
vt 0.5106 0.9928
vt 0.4752 0.9928
vt 0.4752 0.9568
vt 0.7730 0.5899
vt 0.1489 0.6691
vt 0.6525 0.6619
vt 0.6170 0.5899
vt 0.6879 0.5899
vt 0.7234 0.1871
vt 0.6879 0.1871
vt 0.6879 0.1151
vt 0.3404 0.5755
vt 0.3404 0.5036
vt 0.3404 0.9065
vt 0.3759 0.9065
vt 0.3759 0.9424
vt 0.3404 0.9424
vt 0.3262 0.5267
vt 0.2908 0.4892
vt 0.2908 0.4173
vt 0.5674 0.6619
vt 0.5674 0.5899
vt 0.2128 0.8777
vt 0.1773 0.8777
vt 0.1773 0.8058
vt 0.2128 0.8058
vt 0.6879 0.7842
vt 0.6879 0.8561
vt 0.6525 0.8561
vt 0.6525 0.7842
vt 0.6028 0.8561
vt 0.5319 0.8561
vt 0.5319 0.7842
vt 0.6028 0.7842
vt 0.4965 0.8921
vt 0.4610 0.8561
vt 0.4965 0.8561
vt 0.0922 0.8417
vt 0.1277 0.8417
vt 0.0922 0.8777
vt 0.6170 0.9424
vt 0.5816 0.9424
vt 0.5816 0.8705
vt 0.6170 0.8705
vt 0.1631 0.8058
vt 0.1631 0.8777
vt 0.4255 0.8921
vt 0.9078 0.1583
vt 0.9433 0.1583
vt 0.9433 0.1942
vt 0.9078 0.1942
vt 0.6879 0.3453
vt 0.6879 0.3813
vt 0.6525 0.3813
vt 0.6525 0.3453
vt 0.6170 0.6619
vt 0.5319 0.8705
vt 0.5674 0.8705
vt 0.5319 0.9424
vt 0.2199 0.4173
vt 0.2908 0.3813
vt 0.4255 0.8201
vt 0.4610 0.8201
vt 0.2199 0.5971
vt 0.6667 0.9928
vt 0.6312 0.9928
vt 0.6312 0.9568
vt 0.6667 0.9568
vt 0.5816 0.9568
vt 0.6170 0.9568
vt 0.6170 0.9928
vt 0.5816 0.9928
vt 0.5319 0.2374
vt 0.5319 0.2014
vt 0.7730 0.6259
vt 0.3262 0.6331
vt 0.2199 0.6331
vt 0.0071 0.8921
vt 0.0426 0.8921
vt 0.0426 0.9281
vt 0.0071 0.9281
vt 0.3404 0.9568
vt 0.3759 0.9568
vt 0.3759 0.9928
vt 0.3404 0.9928
vt 0.4610 0.9568
vt 0.4610 0.9928
vt 0.4255 0.9928
vt 0.4255 0.9568
vt 0.4468 0.3453
vt 0.4468 0.3094
vt 0.8582 0.9065
vt 0.8227 0.9065
vt 0.8227 0.8705
vt 0.8582 0.8705
vt 0.5177 0.3798
vt 0.4468 0.2590
vt 0.4113 0.2590
vt 0.9220 0.4245
vt 0.9574 0.4245
vt 0.9574 0.4604
vt 0.9220 0.4604
vt 0.1064 0.9424
vt 0.1418 0.9424
vt 0.1418 0.9784
vt 0.1064 0.9784
vt 0.2837 0.9424
vt 0.2837 0.9784
vt 0.2482 0.9784
vt 0.2482 0.9424
vt 0.4113 0.0432
vt 0.5319 0.1871
vt 0.5319 0.0072
vt 0.6383 0.0072
vt 0.6383 0.1871
vt 0.9574 0.0935
vt 0.9574 0.0576
vt 0.9929 0.0576
vt 0.9929 0.0935
vt 0.4965 0.5036
vt 0.4965 0.6835
vt 0.4610 0.5036
vt 0.6383 0.5396
vt 0.9574 0.9712
vt 0.9220 0.9712
vt 0.9220 0.9353
vt 0.9574 0.9353
vt 0.6525 0.1151
vt 0.6525 0.0791
vt 0.6879 0.7698
vt 0.6879 0.4676
vt 0.6879 0.5036
vt 0.6525 0.5036
vt 0.6525 0.4676
vt 0.4468 0.4173
vt 0.4468 0.4532
vt 0.7234 0.5755
vt 0.9220 0.6906
vt 0.9574 0.6906
vt 0.9574 0.7266
vt 0.9220 0.7266
vt 0.5319 0.6978
vt 0.5319 0.6619
vt 0.9574 0.6403
vt 0.9574 0.6763
vt 0.9220 0.6763
vt 0.9220 0.6403
vt 0.9220 0.8705
vt 0.9220 0.8345
vt 0.9574 0.8345
vt 0.9574 0.8705
vt 0.0071 0.9784
vt 0.0071 0.9424
vt 0.0426 0.9424
vt 0.0426 0.9784
vt 0.9574 0.0072
vt 0.9929 0.0072
vt 0.9929 0.0432
vt 0.9574 0.0432
vt 0.7234 0.3453
vt 0.4468 0.3813
vt 0.4113 0.3813
vt 0.9574 0.7842
vt 0.9574 0.8201
vt 0.9220 0.8201
vt 0.9220 0.7842
vt 0.8582 0.9209
vt 0.8582 0.9568
vt 0.8227 0.9568
vt 0.8227 0.9209
vt 0.9574 0.5899
vt 0.9574 0.6259
vt 0.9220 0.6259
vt 0.9220 0.5899
vt 0.9220 0.3741
vt 0.9574 0.3741
vt 0.9574 0.4101
vt 0.9220 0.4101
vt 0.3262 0.2230
vt 0.2908 0.1151
vt 0.3262 0.1151
vt 0.2199 0.3453
vt 0.2199 0.3813
vt 0.2340 0.7914
vt 0.0071 0.4532
vt 0.7376 0.4820
vt 0.5177 0.4892
vt 0.8582 0.8561
vt 0.7872 0.8561
vt 0.8085 0.0072
vt 0.3191 0.7914
vt 0.2199 0.3309
vt 0.8085 0.1295
vt 0.4468 0.6835
vt 0.4468 0.6115
vt 0.5177 0.1151
vt 0.8936 0.3381
vt 0.0780 0.8417
vt 0.7376 0.0791
vt 0.2553 0.2230
vt 0.8936 0.1799
vt 0.9078 0.8705
vt 0.6809 0.8705
vt 0.4610 0.6835
vt 0.6383 0.4317
vt 0.9078 0.7842
vt 0.7234 0.3957
vt 0.4113 0.8921
vt 0.6879 0.3957
vt 0.2837 0.8058
vt 0.7234 0.2374
vt 0.7730 0.7338
vt 0.7163 0.9568
vt 0.7163 0.9928
vt 0.6809 0.9568
vt 0.5319 0.2914
vt 0.8085 0.5324
vt 0.7376 0.5683
vt 0.7376 0.4964
vt 0.8085 0.5683
vt 0.4113 0.6978
vt 0.8085 0.4964
vt 0.4255 0.7338
vt 0.1135 0.6835
vt 0.8936 0.5683
vt 0.8227 0.5683
vt 0.8936 0.4964
vt 0.9078 0.7482
vt 0.7660 0.9424
vt 0.7305 0.8705
vt 0.7660 0.8705
vt 0.7305 0.9424
vt 0.3404 0.0432
vt 0.2199 0.6691
vt 0.8227 0.4964
vt 0.3262 0.4173
vt 0.4468 0.4892
vt 0.5674 0.9424
vt 0.6879 0.5755
vt 0.1277 0.8058
vt 0.8723 0.9928
vt 0.9078 0.9568
vt 0.9078 0.9928
vt 0.8227 0.3741
vt 0.8582 0.3741
vt 0.8582 0.4820
vt 0.8227 0.4820
vt 0.6809 0.9928
vt 0.8723 0.9568
vt 0.7872 0.5899
vn -1.0000 0.0000 0.0000
vn 0.0000 0.0000 -1.0000
vn -0.0000 1.0000 0.0000
vn 1.0000 -0.0000 -0.0000
vn 0.0000 -1.0000 -0.0000
vn 0.0000 -0.0000 1.0000
usemtl palette
s off
f 7/1/1 10/2/1 4/3/1
f 3/4/2 8/5/2 6/6/2
f 10/7/3 9/8/3 4/9/3
f 6/10/4 8/11/4 11/12/4 9/13/4
f 4/3/1 5/14/1 3/15/1
f 5/16/3 11/17/3 8/18/3 3/19/3
f 22/20/1 20/21/1 21/22/1 19/23/1
f 13/24/1 16/25/1 15/26/1
f 10/7/3 27/27/3 18/28/3 9/8/3
f 18/29/1 27/30/1 28/31/1
f 30/32/4 32/33/4 29/34/4
f 26/35/2 29/36/2 15/37/2
f 15/38/5 16/39/5 7/40/5
f 25/41/4 26/42/4 15/43/4 2/44/4
f 27/45/6 10/46/6 7/47/6
f 15/37/2 29/36/2 14/48/2
f 17/49/5 21/50/5 29/51/5 25/52/5
f 36/53/1 37/54/1 38/55/1 27/30/1
f 6/6/2 25/56/2 2/57/2
f 33/58/3 32/59/3 13/60/3
f 13/24/1 31/61/1 33/62/1
f 35/63/4 34/64/4 32/33/4
f 14/65/5 34/66/5 31/67/5
f 35/68/6 33/69/6 34/70/6
f 44/71/3 42/72/3 78/73/3
f 36/74/5 30/75/5 41/76/5 37/77/5
f 43/78/3 48/79/3 44/71/3 39/80/3
f 38/55/1 43/81/1 39/82/1
f 52/83/3 56/84/3 54/85/3 51/86/3
f 40/87/1 45/88/1 43/81/1
f 40/89/6 46/90/6 45/91/6
f 49/92/6 46/90/6 131/93/6
f 38/55/1 40/87/1 43/81/1
f 30/94/6 36/95/6 13/96/6
f 50/97/1 53/98/1 52/99/1 51/100/1
f 19/101/2 58/102/2 63/103/2 24/104/2
f 51/105/2 54/106/2 50/107/2
f 53/108/6 56/109/6 52/110/6
f 59/111/3 63/112/3 58/113/3
f 23/114/1 24/115/1 63/116/1 62/117/1
f 69/118/2 68/119/2 71/120/2 70/121/2
f 69/122/1 79/123/1 68/124/1
f 74/125/1 71/126/1 72/127/1 75/128/1
f 73/129/3 72/130/3 71/131/3 68/132/3
f 57/133/3 79/134/3 69/135/3 55/136/3
f 65/137/5 28/138/5 53/139/5
f 54/106/2 69/140/2 65/141/2
f 28/142/6 56/109/6 53/108/6
f 67/143/1 64/144/1 61/145/1 66/146/1
f 77/147/5 81/148/5 84/149/5 83/150/5
f 60/151/2 66/152/2 61/153/2
f 56/154/1 57/155/1 55/156/1
f 65/157/1 69/122/1 60/158/1
f 79/159/6 57/160/6 56/109/6
f 39/82/1 77/161/1 28/31/1
f 44/162/6 81/163/6 77/164/6 39/165/6
f 43/166/2 83/167/2 84/168/2 48/169/2
f 77/161/1 83/170/1 86/171/1 79/123/1
f 81/148/5 88/172/5 84/149/5
f 84/173/6 87/174/6 86/175/6 83/176/6
f 45/177/3 85/178/3 84/179/3 83/180/3
f 43/81/1 45/88/1 83/170/1
f 76/181/1 73/182/1 89/183/1 91/184/1
f 80/185/4 81/186/4 44/187/4 78/188/4
f 9/189/6 11/190/6 5/191/6 4/192/6
f 94/193/3 93/194/3 86/195/3
f 94/196/6 86/175/6 87/174/6
f 92/197/1 90/198/1 93/199/1 95/200/1
f 105/201/4 106/202/4 104/203/4 103/204/4
f 93/194/3 90/205/3 86/195/3
f 98/206/4 102/207/4 100/208/4
f 96/209/2 98/210/2 99/211/2
f 104/212/2 106/213/2 107/214/2 108/215/2
f 118/216/3 119/217/3 123/218/3 122/219/3
f 97/220/1 129/221/1 110/222/1
f 113/223/4 119/224/4 109/225/4
f 110/226/2 112/227/2 98/210/2
f 111/228/5 112/229/5 110/230/5
f 123/231/4 115/232/4 122/233/4
f 116/234/2 121/235/2 114/236/2
f 116/234/2 117/237/2 121/235/2
f 122/238/6 124/239/6 120/240/6 118/241/6
f 116/242/1 118/243/1 120/244/1 117/245/1
f 120/246/3 124/247/3 121/248/3 117/249/3
f 121/250/4 124/251/4 122/233/4
f 101/252/1 98/253/1 112/254/1 111/255/1
f 123/256/6 119/257/6 115/258/6
f 115/258/6 119/257/6 102/259/6
f 119/217/3 118/216/3 109/260/3
f 118/216/3 116/261/3 109/260/3
f 104/262/5 108/263/5 111/228/5 110/230/5
f 109/225/4 111/264/4 108/265/4
f 132/266/4 119/224/4 130/267/4 41/268/4
f 111/269/2 116/234/2 101/270/2
f 97/220/1 125/271/1 126/272/1
f 128/273/4 127/274/4 100/208/4
f 96/275/5 127/276/5 125/277/5
f 128/278/6 126/279/6 125/280/6
f 134/281/3 135/282/3 133/283/3 47/284/3
f 133/285/4 135/286/4 130/267/4
f 138/287/4 139/288/4 107/289/4 137/290/4
f 136/291/6 49/92/6 131/93/6
f 135/286/4 131/292/4 130/267/4
f 132/266/4 100/208/4 102/207/4
f 142/293/2 147/294/2 140/295/2
f 140/296/3 143/297/3 139/298/3
f 139/299/2 143/300/2 107/214/2
f 151/301/4 152/302/4 150/303/4 148/304/4
f 155/305/4 145/306/4 70/307/4
f 148/308/2 154/309/2 70/121/2
f 159/310/3 162/311/3 161/312/3 158/313/3
f 161/314/4 162/315/4 157/316/4 156/317/4
f 144/318/5 156/319/5 157/320/5 113/321/5
f 156/322/2 158/323/2 161/324/2
f 162/325/6 159/326/6 157/327/6
f 145/328/3 163/329/3 160/330/3 70/331/3
f 159/326/6 145/332/6 113/333/6
f 144/334/2 158/323/2 156/322/2
f 146/335/4 149/336/4 142/337/4 141/338/4
f 164/339/5 165/340/5 167/341/5 166/342/5
f 149/343/2 147/294/2 142/293/2
f 163/344/4 159/345/4 160/346/4
f 70/307/4 144/347/4 147/348/4
f 70/349/2 160/350/2 158/323/2
f 165/351/4 133/285/4 113/223/4
f 145/306/4 165/351/4 113/223/4
f 133/352/6 165/353/6 164/354/6 47/355/6
f 134/356/2 166/357/2 167/358/2 135/359/2
f 166/360/6 167/361/6 94/196/6 87/174/6
f 136/291/6 168/362/6 49/92/6
f 165/351/4 94/363/4 167/364/4
f 168/365/3 136/366/3 167/367/3 166/368/3
f 153/369/4 172/370/4 169/371/4 170/372/4
f 42/373/1 47/374/1 164/375/1 82/376/1
f 94/193/3 171/377/3 174/378/3
f 173/379/4 175/380/4 174/381/4 171/382/4
f 94/193/3 155/383/3 171/377/3
f 19/101/2 24/104/2 107/214/2 106/213/2
f 20/384/5 103/385/5 104/262/5 21/50/5
f 19/386/3 106/387/3 105/388/3 22/389/3
f 23/390/5 137/391/5 107/392/5 24/393/5
f 20/394/2 22/395/2 105/396/2 103/397/2
f 29/51/5 110/230/5 129/398/5 30/75/5
f 21/50/5 104/262/5 110/230/5 29/51/5
f 38/399/5 130/400/5 131/401/5 40/402/5
f 23/403/2 62/404/2 138/405/2 137/406/2
f 130/407/6 38/408/6 41/409/6
f 49/410/3 134/281/3 48/79/3
f 63/112/3 59/111/3 140/296/3 139/298/3
f 64/411/5 141/412/5 142/413/5 61/414/5
f 63/112/3 139/298/3 138/415/3 62/416/3
f 140/295/2 59/417/2 61/153/2 142/293/2
f 66/418/3 149/419/3 146/420/3 67/421/3
f 73/129/3 170/422/3 150/423/3 72/130/3
f 70/424/3 149/419/3 66/418/3
f 70/121/2 71/120/2 148/308/2
f 75/425/3 152/426/3 151/427/3 74/428/3
f 71/120/2 74/429/2 151/430/2 148/308/2
f 150/431/6 152/432/6 75/433/6 72/434/6
f 73/435/2 76/436/2 153/437/2 170/438/2
f 64/439/2 67/440/2 146/441/2 141/442/2
f 91/443/3 172/444/3 153/445/3 76/446/3
f 82/447/5 164/339/5 81/148/5
f 90/205/3 171/377/3 169/448/3 89/449/3
f 169/450/6 172/451/6 91/452/6 89/453/6
f 90/454/2 92/455/2 173/456/2 171/457/2
f 174/458/6 175/459/6 95/460/6 93/461/6
f 95/462/3 175/463/3 173/464/3 92/465/3
f 17/466/1 18/29/1 59/467/1 58/468/1
f 143/469/4 140/470/4 109/225/4 108/265/4
f 18/29/1 65/157/1 59/467/1
f 86/195/3 89/449/3 73/129/3 68/132/3
f 107/214/2 143/300/2 108/215/2
f 113/223/4 130/267/4 119/224/4
f 32/33/4 34/64/4 14/471/4
f 100/208/4 127/274/4 99/472/4
f 99/473/5 127/276/5 96/275/5
f 169/448/3 154/474/3 170/422/3
f 1/475/5 15/38/5 7/40/5
f 1/475/5 2/476/5 15/38/5
f 1/477/2 3/4/2 6/6/2
f 1/478/1 4/3/1 3/15/1
f 12/479/1 13/24/1 15/26/1
f 12/480/2 15/37/2 14/48/2
f 17/481/2 19/101/2 21/482/2
f 25/52/5 29/51/5 26/483/5
f 16/484/6 27/45/6 7/47/6
f 9/8/3 18/28/3 6/485/3
f 25/56/2 6/6/2 18/486/2
f 1/477/2 6/6/2 2/57/2
f 1/478/1 7/1/1 4/3/1
f 29/34/4 32/33/4 14/471/4
f 17/466/1 25/487/1 18/29/1
f 32/488/6 30/94/6 13/96/6
f 34/70/6 33/69/6 31/489/6
f 33/58/3 35/490/3 32/59/3
f 41/409/6 38/408/6 37/491/6
f 48/79/3 47/284/3 44/71/3
f 46/492/3 49/410/3 48/79/3
f 40/89/6 131/93/6 46/90/6
f 16/25/1 13/24/1 36/53/1
f 54/493/1 56/154/1 55/156/1
f 59/417/2 60/151/2 61/153/2
f 69/494/3 70/424/3 66/418/3
f 28/142/6 79/159/6 56/109/6
f 50/495/5 65/137/5 53/139/5
f 50/107/2 54/106/2 65/141/2
f 59/467/1 65/157/1 60/158/1
f 69/494/3 66/418/3 60/496/3
f 54/106/2 55/497/2 69/140/2
f 80/498/5 82/447/5 81/148/5
f 28/31/1 77/161/1 79/123/1
f 46/90/6 85/499/6 45/91/6
f 84/500/4 85/501/4 48/502/4
f 88/503/6 87/174/6 84/173/6
f 86/195/3 90/205/3 89/449/3
f 98/206/4 100/208/4 99/472/4
f 98/504/5 114/505/5 115/506/5
f 101/507/5 114/505/5 98/504/5
f 121/250/4 122/233/4 114/508/4
f 102/509/5 98/504/5 115/506/5
f 111/269/2 109/510/2 116/234/2
f 96/511/1 97/220/1 110/222/1
f 96/209/2 110/226/2 98/210/2
f 101/270/2 116/234/2 114/236/2
f 122/233/4 115/232/4 114/508/4
f 97/512/6 100/513/6 129/514/6
f 127/515/6 128/278/6 125/280/6
f 97/516/3 128/517/3 100/518/3
f 126/519/3 128/517/3 97/516/3
f 129/398/5 132/520/5 41/76/5
f 135/286/4 136/521/4 131/292/4
f 100/513/6 132/522/6 129/514/6
f 170/422/3 154/474/3 150/423/3
f 154/523/4 155/305/4 70/307/4
f 150/423/3 154/474/3 148/524/3
f 160/346/4 159/345/4 158/525/4
f 144/334/2 70/349/2 158/323/2
f 157/327/6 159/326/6 113/333/6
f 147/348/4 144/347/4 140/470/4
f 149/419/3 70/424/3 147/526/3
f 159/326/6 163/527/6 145/332/6
f 81/148/5 164/339/5 88/172/5
f 145/306/4 94/363/4 165/351/4
f 88/172/5 164/339/5 166/342/5
f 134/528/1 168/529/1 166/530/1
f 167/364/4 136/521/4 135/286/4
f 88/503/6 166/360/6 87/174/6
f 171/377/3 155/383/3 169/448/3
f 155/305/4 94/363/4 145/306/4
f 44/71/3 47/284/3 42/72/3
f 30/75/5 129/398/5 41/76/5
f 48/79/3 134/281/3 47/284/3
f 42/531/6 82/532/6 80/533/6
f 93/194/3 94/193/3 174/378/3
f 17/481/2 58/102/2 19/101/2
f 18/29/1 28/31/1 65/157/1
f 144/347/4 113/223/4 109/225/4
f 140/470/4 144/347/4 109/225/4
f 38/55/1 39/82/1 28/31/1
f 42/531/6 80/533/6 78/534/6
f 27/30/1 38/55/1 28/31/1
f 85/501/4 46/535/4 48/502/4
f 113/223/4 133/285/4 130/267/4
f 134/528/1 49/536/1 168/529/1
f 12/479/1 31/61/1 13/24/1
f 12/537/5 14/65/5 31/67/5
f 16/25/1 36/53/1 27/30/1
f 68/124/1 79/123/1 86/171/1
f 96/511/1 125/271/1 97/220/1
f 119/224/4 132/266/4 102/207/4
f 169/448/3 155/383/3 154/474/3
